<?xml version="1.0" standalone="no"?>
<!DOCTYPE svg PUBLIC "-//W3C//DTD SVG 1.1//EN" "http://www.w3.org/Graphics/SVG/1.1/DTD/svg11.dtd" >
<svg>
<metadata>
Created by FontForge 20120731 at Tue Jul  2 05:33:28 2019
 By www
Copyright (c) 1991 Adobe Systems Incorporated.  All Rights Reserved.Berthold Akzidenz Grotesk is a registered trademark of H. Berthold AG.
</metadata>
<defs>
<font id="AkzidenzGroteskBE-BoldEx" horiz-adv-x="375" >
  <font-face 
    font-family="Berthold Akzidenz Grotesk BE"
    font-weight="700"
    font-stretch="normal"
    units-per-em="1000"
    panose-1="0 0 0 0 0 0 0 0 0 0"
    ascent="800"
    descent="-200"
    x-height="529"
    cap-height="706"
    bbox="-173 -258 1792 958"
    underline-thickness="50"
    underline-position="-75"
    stemh="159"
    stemv="235"
    unicode-range="U+0020-FB02"
  />
<missing-glyph 
 />
    <glyph glyph-name=".notdef" 
 />
    <glyph glyph-name="space" unicode=" " 
 />
    <glyph glyph-name="exclam" unicode="!" horiz-adv-x="333" 
d="M71 706h230v-136c-2 -69 -3 -85 -11 -181l-10 -127h-188l-9 127c-9 96 -10 114 -12 180v137zM92 0v185h188v-185h-188z" />
    <glyph glyph-name="quotedbl" unicode="&#x22;" horiz-adv-x="396" 
d="M372 669l-53 -261h-31l-55 250c-1 9 -2 17 -2 24c0 45 39 67 75 67c35 0 67 -22 67 -62c0 -6 0 -12 -1 -18zM164 669l-53 -261h-32l-54 250c-2 9 -3 17 -3 24c0 45 40 67 75 67c36 0 68 -22 68 -62c0 -6 -1 -12 -1 -18z" />
    <glyph glyph-name="numbersign" unicode="#" horiz-adv-x="667" 
d="M485 186l-26 -186h-125l26 186h-99l-26 -186h-124l25 186h-94v123h112l13 96h-100v124h117l25 177h125l-26 -177h100l24 177h125l-24 -177h91v-124h-109l-12 -96h98v-123h-116zM278 309h99l14 96h-99z" />
    <glyph glyph-name="dollar" unicode="$" horiz-adv-x="854" 
d="M373 803l91 1v-115c106 -10 289 -33 326 -215l-235 -13c-6 44 -24 67 -91 80v-127c164 -14 226 -19 285 -60c42 -30 64 -67 64 -131c0 -51 -17 -102 -62 -145c-89 -88 -230 -96 -286 -100v-137h-90v136c-89 4 -177 17 -252 64c-89 55 -105 125 -114 163l244 11
c1 -7 2 -14 7 -26c25 -50 79 -61 115 -68v160c-162 16 -239 24 -288 63c-33 26 -55 69 -55 122c0 80 46 141 118 177c81 41 173 43 223 45v115zM374 425v118c-29 -3 -100 -12 -100 -68c0 -32 20 -38 100 -50zM464 270v-150c20 2 43 5 68 20c23 13 40 35 40 62
c0 41 -34 57 -108 68z" />
    <glyph glyph-name="percent" unicode="%" horiz-adv-x="1250" 
d="M271 717c145 6 271 -62 271 -229c0 -52 -13 -140 -85 -189c-52 -36 -122 -46 -186 -46c-49 0 -128 6 -185 59c-59 55 -64 140 -64 170c0 53 12 118 60 166c49 49 119 66 189 69zM279 605c-24 0 -48 -6 -66 -31c-20 -27 -24 -60 -24 -93c0 -17 2 -44 11 -66
c13 -34 35 -55 78 -55c64 0 95 44 95 121c0 31 -5 62 -18 85c-10 18 -29 39 -76 39zM335 32l494 704l87 -60l-494 -706zM958 452c145 6 271 -62 271 -229c0 -9 0 -17 -1 -26c-14 -172 -146 -209 -270 -209c-51 0 -129 7 -185 59c-59 55 -64 140 -64 170c0 53 12 118 60 166
c49 49 119 66 189 69zM966 340c-24 0 -48 -6 -66 -31c-20 -27 -24 -60 -24 -93c0 -17 2 -44 11 -66c13 -34 35 -55 78 -55c64 0 95 44 95 121c0 31 -5 62 -18 85c-10 18 -29 39 -76 39z" />
    <glyph glyph-name="ampersand" unicode="&#x26;" horiz-adv-x="854" 
d="M601 0l-32 34c-52 -21 -128 -53 -260 -53c-164 0 -298 78 -298 212c0 136 127 174 220 202c-19 25 -43 56 -43 110c0 46 22 85 51 110c39 34 107 55 219 55c53 0 107 -5 156 -26c19 -8 98 -42 98 -140c0 -103 -80 -142 -174 -168l86 -90c19 21 26 31 42 67l180 -25
c-26 -61 -44 -93 -116 -158l121 -130h-250zM449 442c45 12 80 27 80 65c0 17 -10 53 -63 53c-38 0 -59 -21 -59 -46c0 -18 12 -44 42 -72zM464 145l-136 146c-25 -8 -85 -26 -85 -79c0 -49 43 -85 118 -85c45 0 81 11 103 18z" />
    <glyph glyph-name="quoteright" unicode="&#x2019;" horiz-adv-x="313" 
d="M42 525v181h229v-157c-2 -51 -4 -109 -59 -156c-56 -48 -126 -51 -171 -52v84c54 5 84 18 91 100h-90z" />
    <glyph glyph-name="parenleft" unicode="(" 
d="M375 -135l-113 -87c-18 17 -38 38 -57 61c-38 44 -99 136 -129 214c-23 59 -40 143 -40 218c0 182 88 305 141 377c32 43 45 58 81 95l114 -86c-36 -52 -110 -157 -110 -394c0 -86 12 -172 39 -252c24 -72 51 -111 74 -146z" />
    <glyph glyph-name="parenright" unicode=")" 
d="M-1 657l113 87c18 -18 38 -38 57 -61c38 -45 99 -136 129 -214c23 -60 40 -144 40 -219c0 -181 -88 -304 -141 -376c-32 -44 -45 -58 -81 -96l-114 87c36 52 110 156 110 393c0 86 -12 172 -39 252c-24 72 -49 109 -74 147z" />
    <glyph glyph-name="asterisk" unicode="*" horiz-adv-x="396" 
d="M170 558l-30 151h115l-31 -150l134 76l36 -108l-153 -18l112 -103l-92 -69l-64 142l-65 -140l-90 65l112 104l-153 15l35 110z" />
    <glyph glyph-name="plus" unicode="+" horiz-adv-x="667" 
d="M398 228v-228h-127v228h-229v127h229v228h127v-228h227v-127h-227z" />
    <glyph glyph-name="comma" unicode="," horiz-adv-x="313" 
d="M40 0v184h231v-169c-3 -40 -7 -121 -95 -170c-54 -30 -102 -30 -136 -30v82c56 7 82 25 91 103h-91z" />
    <glyph glyph-name="hyphen" unicode="-" horiz-adv-x="458" 
d="M37 255v175h368v-175h-368z" />
    <glyph glyph-name="period" unicode="." horiz-adv-x="313" 
d="M41 0v184h230v-184h-230z" />
    <glyph glyph-name="slash" unicode="/" horiz-adv-x="479" 
d="M-4 0l277 706h188l-278 -706h-187z" />
    <glyph glyph-name="zero" unicode="0" horiz-adv-x="854" 
d="M443 693c118 -1 217 -27 283 -86c88 -80 102 -187 102 -272c0 -253 -171 -355 -399 -355c-62 0 -167 5 -260 63c-127 80 -143 204 -143 290c0 40 3 80 14 118c51 192 222 243 403 242zM424 545c-36 -1 -81 -11 -115 -57c-24 -35 -38 -87 -38 -144c0 -18 1 -36 4 -54
c5 -39 23 -155 151 -155c33 0 82 4 119 56c32 46 39 116 39 152c0 44 -8 101 -34 141c-21 33 -58 63 -126 61z" />
    <glyph glyph-name="one" unicode="1" horiz-adv-x="854" 
d="M163 443v144c118 13 172 53 222 91h176v-678h-234v474c-69 -22 -87 -26 -164 -31z" />
    <glyph glyph-name="two" unicode="2" horiz-adv-x="854" 
d="M779 159v-159h-707v139c24 44 57 104 180 175c28 16 42 22 169 80c70 32 108 49 108 91c0 58 -83 60 -110 60c-28 0 -56 -3 -79 -18c-38 -24 -39 -61 -40 -86l-208 5c4 51 7 98 40 146c43 59 108 97 313 97c151 0 231 -28 278 -78c32 -34 45 -74 45 -118
c0 -99 -84 -152 -153 -185c-40 -19 -82 -35 -122 -53c-26 -11 -103 -45 -156 -84c-7 -4 -13 -9 -19 -14c10 1 20 1 30 1c11 1 21 1 32 1h399z" />
    <glyph glyph-name="three" unicode="3" horiz-adv-x="854" 
d="M278 283v129h56c71 0 131 1 158 12c22 9 37 24 38 60c-1 53 -57 65 -116 65c-118 -2 -143 -42 -150 -62l-229 10c15 67 44 199 379 199c37 0 74 -2 111 -4c55 -4 133 -12 189 -51c55 -39 72 -97 72 -137c0 -18 -3 -41 -15 -62c-15 -27 -50 -59 -118 -76
c-9 -2 -18 -4 -28 -6c10 -1 19 -3 29 -5c89 -17 149 -64 149 -149c0 -204 -250 -221 -400 -221c-117 0 -233 6 -313 62c-75 53 -88 122 -94 157l225 10c0 -8 17 -36 42 -51c35 -20 80 -27 133 -27c107 0 149 29 149 79c0 65 -78 68 -117 68h-150z" />
    <glyph glyph-name="four" unicode="4" horiz-adv-x="854" 
d="M28 271l400 406h271v-395h118v-159h-120v-123h-225v123h-444v148zM473 282v216l-214 -216h214z" />
    <glyph glyph-name="five" unicode="5" horiz-adv-x="854" 
d="M765 524h-475l-9 -103c38 15 109 42 219 42c93 0 177 -20 235 -65c76 -60 76 -134 76 -154c0 -83 -47 -184 -188 -231c-85 -28 -197 -29 -221 -29c-129 0 -208 27 -252 49c-102 52 -111 124 -116 158l240 10c17 -53 91 -67 144 -67c72 0 147 29 147 100
c0 76 -95 91 -151 91c-80 0 -114 -25 -133 -38l-210 4l35 387h673z" />
    <glyph glyph-name="six" unicode="6" horiz-adv-x="854" 
d="M438 548c-69 0 -103 -31 -117 -46c-40 -43 -45 -101 -48 -139c86 84 194 89 249 89c195 0 298 -89 298 -220c0 -99 -61 -186 -198 -224c-56 -15 -115 -20 -173 -20c-84 0 -154 13 -200 28c-48 16 -92 40 -128 79c-61 64 -84 152 -84 241c0 61 13 126 38 177
c35 74 114 183 380 183c111 0 203 -24 255 -58c61 -39 80 -91 92 -123l-253 -11c-29 38 -78 44 -111 44zM449 313c-33 0 -154 -3 -154 -86s96 -89 154 -89c88 0 131 35 131 90c0 45 -40 85 -131 85z" />
    <glyph glyph-name="seven" unicode="7" horiz-adv-x="854" 
d="M63 516v161h747l-7 -77c-10 -99 -28 -123 -153 -235c-198 -175 -216 -209 -255 -365h-268c33 213 116 282 243 368c10 6 56 35 66 42c84 54 91 75 94 106h-467z" />
    <glyph glyph-name="eight" unicode="8" horiz-adv-x="854" 
d="M652 355c35 -7 161 -32 161 -157c-5 -165 -186 -214 -401 -210c-261 -1 -370 94 -370 210c0 119 117 147 163 158c-116 28 -141 90 -141 134c0 105 104 202 376 202c257 0 354 -94 354 -197c0 -87 -83 -120 -107 -129c-15 -5 -35 -11 -35 -11zM423 548
c-31 0 -118 -4 -118 -67c0 -64 72 -67 123 -67c31 0 123 0 123 69c0 61 -78 65 -128 65zM432 292c-60 0 -143 -6 -143 -78c1 -67 72 -82 141 -79c95 4 136 23 136 79c0 78 -93 78 -134 78z" />
    <glyph glyph-name="nine" unicode="9" horiz-adv-x="854" 
d="M567 307c-35 -30 -89 -78 -234 -78c-165 0 -303 65 -303 219c0 66 31 150 136 198c93 42 232 44 258 44c235 0 387 -97 387 -334c0 -75 -14 -208 -130 -296c-88 -66 -197 -75 -296 -75c-55 0 -124 4 -194 26c-108 34 -144 93 -162 160l262 6c16 -19 37 -44 101 -44
c41 0 83 9 115 35c54 44 59 110 60 139zM402 542c-53 -2 -132 -12 -132 -84c0 -82 110 -83 139 -83c99 0 150 27 150 82c0 66 -56 88 -157 85z" />
    <glyph glyph-name="colon" unicode=":" horiz-adv-x="354" 
d="M81 346v183h232v-183h-232zM80 0v184h231v-184h-231z" />
    <glyph glyph-name="semicolon" unicode=";" horiz-adv-x="354" 
d="M78 346v185h232v-185h-232zM78 0v184h231v-169c-3 -40 -7 -121 -95 -170c-54 -30 -102 -30 -136 -30v82c56 7 82 25 91 103h-91z" />
    <glyph glyph-name="less" unicode="&#x3c;" horiz-adv-x="667" 
d="M667 136v-139l-667 292v124l667 296v-139l-489 -219z" />
    <glyph glyph-name="equal" unicode="=" horiz-adv-x="667" 
d="M667 251v-127h-667v127h667zM667 459v-126h-667v126h667z" />
    <glyph glyph-name="greater" unicode="&#x3e;" horiz-adv-x="667" 
d="M667 289l-667 -292v139l489 215l-489 219v139l667 -296v-124z" />
    <glyph glyph-name="question" unicode="?" horiz-adv-x="771" 
d="M265 451l-202 12c3 50 7 135 86 196c77 60 197 63 271 63c68 0 193 -1 268 -66c52 -46 62 -105 62 -141c0 -88 -66 -131 -165 -181c-51 -25 -81 -40 -82 -74h-216c0 74 11 106 101 147c84 39 114 52 114 97c0 12 -3 78 -107 78c-65 0 -134 -19 -130 -131zM289 0v184h215
v-184h-215z" />
    <glyph glyph-name="at" unicode="@" horiz-adv-x="896" 
d="M779 101l47 -61c-60 -57 -181 -164 -367 -164c-151 0 -390 78 -390 362c0 253 197 474 460 474c186 0 298 -124 298 -292c0 -181 -112 -354 -238 -354c-75 0 -87 54 -90 68c-30 -36 -69 -68 -126 -68c-75 0 -139 55 -139 170c0 138 90 287 217 287c67 0 92 -40 106 -60
l9 39h91l-34 -158c-7 -37 -27 -130 -27 -163c0 -12 1 -30 19 -30c43 0 128 122 128 265c0 161 -118 217 -223 217c-191 0 -369 -178 -369 -396c0 -221 181 -282 303 -282c88 0 181 29 266 93c25 20 45 38 59 53zM524 349c-1 54 -30 84 -68 84c-73 0 -118 -112 -118 -192
c0 -82 52 -86 63 -86c25 0 55 19 77 48c32 43 47 107 46 146z" />
    <glyph glyph-name="A" unicode="A" horiz-adv-x="896" 
d="M0 0l304 706h288l306 -706h-275l-38 115h-270l-38 -115h-277zM532 271l-83 239l-81 -239h164z" />
    <glyph glyph-name="B" unicode="B" horiz-adv-x="938" 
d="M61 0v706h592c49 -1 116 -2 165 -37c51 -37 60 -97 60 -129c0 -88 -50 -137 -136 -158c42 -6 93 -14 132 -55c30 -32 40 -68 40 -118c0 -98 -57 -156 -127 -183c-59 -22 -128 -26 -183 -26h-543zM315 546v-109h237c38 0 46 3 53 6c19 7 31 24 31 51c0 20 -9 36 -32 46
c-10 5 -27 6 -51 6h-238zM314 284v-123h256c25 0 43 1 54 6c33 12 39 37 39 61c0 27 -13 45 -34 51c-16 5 -33 5 -64 5h-251z" />
    <glyph glyph-name="C" unicode="C" horiz-adv-x="938" 
d="M509 574c-114 0 -216 -71 -216 -221c0 -107 63 -218 208 -218c55 0 106 17 143 47c33 27 43 50 51 71l241 -25c-8 -26 -17 -52 -40 -88c-83 -128 -245 -164 -400 -164c-69 0 -137 6 -202 26c-145 45 -265 156 -265 350c0 137 72 384 474 384c343 0 397 -156 420 -223
l-234 -42c-10 20 -22 47 -59 71c-38 24 -85 32 -121 32z" />
    <glyph glyph-name="D" unicode="D" horiz-adv-x="917" 
d="M61 0v706h401c73 0 278 4 376 -167c15 -26 49 -88 49 -193c0 -55 -10 -111 -32 -161c-18 -41 -51 -98 -132 -140c-76 -40 -146 -45 -214 -45h-448zM308 538v-378h111c86 0 135 16 164 42c34 30 57 89 57 149c0 67 -27 118 -63 147c-44 35 -104 40 -151 40h-118z" />
    <glyph glyph-name="E" unicode="E" horiz-adv-x="833" 
d="M60 706h744v-159h-491v-115h454v-160h-455v-112h502v-160h-754v706z" />
    <glyph glyph-name="F" unicode="F" horiz-adv-x="750" 
d="M61 0v706h692v-159h-439v-135h403v-158h-403v-254h-253z" />
    <glyph glyph-name="G" unicode="G" horiz-adv-x="1000" 
d="M530 263v160h420v-423h-218v78c-13 -12 -23 -21 -50 -38c-38 -23 -110 -61 -250 -61c-210 0 -403 118 -403 365c0 25 2 51 7 76c13 70 48 148 124 211c99 82 230 107 359 107c55 0 111 -6 165 -17c86 -19 150 -50 204 -112c22 -25 29 -42 40 -65l-250 -26
c-46 48 -101 61 -155 61c-167 0 -234 -123 -234 -228c0 -144 104 -211 219 -211c100 0 190 54 206 123h-184z" />
    <glyph glyph-name="H" unicode="H" horiz-adv-x="938" 
d="M59 0v706h255v-258h308v258h256v-706h-256v271h-308v-271h-255z" />
    <glyph glyph-name="I" unicode="I" 
d="M61 706h253v-706h-253v706z" />
    <glyph glyph-name="J" unicode="J" horiz-adv-x="458" 
d="M141 240v466h253v-484c-1 -46 -2 -110 -53 -162c-54 -55 -129 -58 -200 -60h-145v167h57c54 2 85 4 88 73z" />
    <glyph glyph-name="K" unicode="K" horiz-adv-x="833" 
d="M60 706h235v-264l237 264h306l-277 -267l309 -439h-303l-186 267l-87 -84v-183h-234v706z" />
    <glyph glyph-name="L" unicode="L" horiz-adv-x="688" 
d="M60 706h254v-534h360v-172h-614v706z" />
    <glyph glyph-name="M" unicode="M" horiz-adv-x="1146" 
d="M60 0v706h335l178 -461l178 461h334v-706h-250v452l-167 -452h-195l-165 450v-450h-248z" />
    <glyph glyph-name="N" unicode="N" horiz-adv-x="917" 
d="M62 0v706h209l217 -238c62 -67 75 -83 125 -148c-4 97 -5 131 -5 226v160h249v-706h-210l-259 292c-36 42 -48 57 -80 97c3 -122 3 -149 4 -239v-150h-250z" />
    <glyph glyph-name="O" unicode="O" horiz-adv-x="1000" 
d="M487 732c88 1 182 -8 263 -41c162 -66 219 -214 219 -335c0 -66 -16 -134 -51 -192c-22 -37 -50 -69 -84 -95c-96 -76 -210 -94 -338 -94c-246 0 -347 87 -399 158c-48 64 -67 132 -67 213c0 79 20 157 65 221c99 140 267 163 392 165zM502 575
c-159 2 -212 -124 -212 -221c0 -109 59 -222 212 -222c35 0 71 4 102 20c78 39 105 131 105 202c0 77 -34 219 -207 221z" />
    <glyph glyph-name="P" unicode="P" horiz-adv-x="833" 
d="M61 0v707h483c90 -2 172 -4 228 -54c26 -24 65 -75 65 -172c0 -48 -11 -102 -47 -146c-65 -80 -171 -86 -286 -86h-191v-249h-252zM313 547v-139h164c43 0 107 1 107 69c0 24 -11 45 -26 56c-18 13 -41 14 -61 14h-184z" />
    <glyph glyph-name="Q" unicode="Q" horiz-adv-x="1000" 
d="M916 -117l-227 116c-58 -15 -101 -23 -189 -23c-128 0 -230 21 -309 72c-92 57 -161 159 -161 302c0 90 29 179 88 247c107 123 276 135 386 135c80 0 293 -2 405 -167c22 -32 60 -96 60 -216c0 -129 -56 -197 -85 -234l122 -58zM501 574c-139 -1 -208 -115 -208 -229
c0 -142 91 -213 209 -213c139 0 208 95 208 214c0 137 -80 230 -209 228z" />
    <glyph glyph-name="R" unicode="R" horiz-adv-x="875" 
d="M59 0v706h519c62 -1 138 -2 197 -45c51 -39 83 -108 83 -179c0 -50 -16 -99 -45 -134c-40 -48 -88 -58 -118 -66l177 -282h-280l-145 257h-135v-257h-253zM312 546v-129h190c39 0 103 1 103 64c0 16 -5 33 -18 45c-20 18 -46 20 -65 20h-210z" />
    <glyph glyph-name="S" unicode="S" horiz-adv-x="812" 
d="M400 581c-33 0 -111 -5 -111 -57c0 -10 3 -19 8 -25c17 -22 88 -38 127 -46c48 -11 97 -20 145 -31c31 -6 61 -13 91 -25c94 -35 124 -105 124 -169c0 -47 -16 -90 -37 -121c-59 -89 -178 -128 -368 -128c-71 0 -212 6 -295 80c-61 54 -70 119 -74 151l249 7
c9 -46 56 -81 156 -81c26 0 63 3 88 17c17 10 35 30 35 54c0 33 -27 47 -47 54c-31 10 -190 38 -225 46c-28 6 -54 13 -81 22c-27 10 -140 50 -140 179c0 53 22 102 57 138c79 82 221 90 299 90c86 0 171 -12 215 -27c132 -42 149 -141 156 -179l-248 -14
c-6 23 -18 65 -124 65z" />
    <glyph glyph-name="T" unicode="T" horiz-adv-x="771" 
d="M8 707h756v-159h-250v-548h-255v548h-251v159z" />
    <glyph glyph-name="U" unicode="U" horiz-adv-x="958" 
d="M61 252v454h252v-401c0 -44 4 -76 20 -103c32 -55 96 -70 147 -70c66 0 104 23 121 39c43 40 44 104 44 138v397h252v-370c0 -83 -2 -170 -41 -230c-77 -120 -263 -131 -375 -131c-157 0 -246 22 -299 54c-110 54 -121 166 -121 223z" />
    <glyph glyph-name="V" unicode="V" horiz-adv-x="854" 
d="M308 0l-320 706h265l113 -277c29 -71 35 -87 59 -159c22 61 29 80 57 149c38 95 78 191 118 287h265l-322 -706h-235z" />
    <glyph glyph-name="W" unicode="W" horiz-adv-x="1083" 
d="M158 0l-171 706h247l59 -336c11 -59 14 -76 20 -128c7 45 9 55 19 105l85 359h258l43 -200c30 -129 35 -154 53 -261c5 40 7 52 12 88l65 373h246l-170 -706h-271l-81 318c-17 66 -21 84 -30 154c-7 -63 -10 -81 -29 -157l-82 -315h-273z" />
    <glyph glyph-name="X" unicode="X" horiz-adv-x="938" 
d="M310 383l-266 323h316l110 -192l109 192h315l-263 -324l312 -382h-315l-159 245l-159 -245h-313z" />
    <glyph glyph-name="Y" unicode="Y" horiz-adv-x="875" 
d="M-10 706h295l117 -212c18 -37 21 -43 37 -81c17 39 21 50 43 95l110 198h292l-320 -496v-210h-250v210z" />
    <glyph glyph-name="Z" unicode="Z" horiz-adv-x="833" 
d="M44 547v159h767v-151l-449 -388h448v-167h-804v149l468 398h-430z" />
    <glyph glyph-name="bracketleft" unicode="[" horiz-adv-x="396" 
d="M76 707h300v-141h-108v-678h107v-140h-299v959z" />
    <glyph glyph-name="backslash" unicode="\" horiz-adv-x="479" 
d="M461 0h-188l-277 706h187z" />
    <glyph glyph-name="bracketright" unicode="]" horiz-adv-x="396" 
d="M19 566v141h301v-959h-298v140h106v678h-109z" />
    <glyph glyph-name="asciicircum" unicode="^" horiz-adv-x="729" 
d="M421 706l194 -395h-138l-110 231l-116 -231h-137l203 395h104z" />
    <glyph glyph-name="underscore" unicode="_" horiz-adv-x="500" 
d="M510 -75v-50h-520v50h520z" />
    <glyph glyph-name="quoteleft" unicode="&#x2018;" horiz-adv-x="313" 
d="M42 343v194c0 34 0 87 53 129c52 42 119 44 175 46v-81c-82 -11 -90 -53 -92 -101h92v-187h-228z" />
    <glyph glyph-name="a" unicode="a" horiz-adv-x="792" 
d="M268 364h-227c6 34 17 96 81 135c50 30 142 49 267 49c106 0 207 -9 265 -38c86 -41 86 -120 86 -156v-277c1 -41 6 -56 29 -78h-245c-6 21 -7 27 -9 51c-61 -26 -152 -66 -263 -66c-60 0 -123 10 -171 47c-41 30 -62 73 -62 123c0 31 9 66 28 92c17 23 48 46 94 60
c88 27 255 30 370 32c0 14 0 28 -12 43c-9 11 -29 31 -102 31c-12 0 -49 -2 -75 -8c-42 -10 -48 -26 -54 -40zM515 243c-39 -2 -122 -5 -162 -9c-34 -3 -96 -9 -96 -56c0 -16 12 -53 83 -53c39 0 78 10 112 30c48 27 56 59 63 88z" />
    <glyph glyph-name="b" unicode="b" horiz-adv-x="792" 
d="M47 0v706h237v-223c36 25 90 63 204 63c155 0 279 -97 279 -277c0 -209 -164 -278 -296 -278c-95 0 -149 33 -186 56v-47h-238zM401 386c-97 -3 -119 -76 -119 -118c0 -68 47 -122 122 -122c50 0 123 27 123 123c0 62 -37 120 -126 117z" />
    <glyph glyph-name="c" unicode="c" horiz-adv-x="812" 
d="M427 412c-87 0 -151 -56 -151 -144c0 -85 58 -146 155 -146c27 0 64 5 94 26c29 19 37 39 45 58l235 -8c-9 -30 -28 -86 -90 -135c-89 -71 -214 -80 -301 -80c-116 0 -249 25 -326 110c-37 40 -64 103 -64 171c0 108 64 178 108 211c80 61 193 79 299 79
c124 0 236 -33 304 -102c38 -40 49 -75 56 -95l-233 -21c-16 49 -74 76 -131 76z" />
    <glyph glyph-name="d" unicode="d" horiz-adv-x="792" 
d="M508 707h235v-707h-235v52c-20 -15 -38 -28 -78 -42c-38 -14 -79 -22 -122 -22c-167 0 -281 113 -281 275c0 148 99 284 284 284c107 0 160 -41 197 -70v230zM386 387c-75 0 -124 -44 -124 -119c0 -85 60 -124 122 -124c75 0 124 54 124 124c0 61 -37 119 -122 119z" />
    <glyph glyph-name="e" unicode="e" horiz-adv-x="812" 
d="M796 232h-526c19 -93 102 -113 147 -113c28 0 53 7 70 14c25 10 35 20 49 34l246 -12c-13 -24 -39 -74 -112 -114c-92 -50 -218 -56 -264 -56c-70 0 -140 9 -205 35c-102 41 -175 123 -175 247c0 70 25 125 53 160c90 115 249 118 328 118c107 0 228 -15 310 -99
c74 -75 77 -155 79 -214zM278 324h270c-8 20 -13 35 -38 56c-32 26 -72 30 -97 30c-100 0 -125 -62 -135 -86z" />
    <glyph glyph-name="f" unicode="f" horiz-adv-x="396" 
d="M234 707h164v-128c-17 1 -25 2 -37 2c-64 0 -64 -22 -64 -73h100v-137h-90v-371h-235v371h-77v137h79v62c1 32 2 69 30 98c34 38 81 38 130 39z" />
    <glyph glyph-name="g" unicode="g" horiz-adv-x="792" 
d="M34 2h239c2 -58 55 -77 108 -77c29 0 73 4 100 29c28 26 27 53 25 134c-21 -13 -37 -22 -72 -33c-44 -13 -89 -20 -135 -20c-141 0 -279 81 -279 246c0 139 99 259 291 259c107 0 166 -39 195 -58v48h236v-486c-1 -58 -6 -123 -77 -178c-33 -25 -110 -76 -290 -76
c-89 0 -187 17 -258 69c-69 52 -78 109 -83 143zM377 387c-80 -2 -115 -54 -115 -101c0 -58 52 -100 124 -100c62 0 122 35 122 103c0 74 -73 100 -131 98z" />
    <glyph glyph-name="h" unicode="h" horiz-adv-x="812" 
d="M51 706h236v-242c35 31 91 83 218 83c96 0 179 -36 217 -82c40 -50 40 -118 40 -170v-295h-235v257c0 27 0 56 -11 79c-12 24 -45 54 -102 54c-25 0 -50 -3 -71 -15c-55 -30 -57 -86 -59 -134v-241h-233v706z" />
    <glyph glyph-name="i" unicode="i" horiz-adv-x="333" 
d="M48 583v123h235v-123h-235zM49 0v529h234v-529h-234z" />
    <glyph glyph-name="j" unicode="j" horiz-adv-x="333" 
d="M49 582v124h238v-124h-238zM49 6v524h238v-526c-1 -37 -3 -94 -45 -138c-50 -52 -114 -51 -254 -50v143c44 0 59 7 61 47z" />
    <glyph glyph-name="k" unicode="k" horiz-adv-x="750" 
d="M50 0l-2 706h233v-346l182 169h297l-224 -194l232 -335h-261l-130 196l-95 -82v-114h-232z" />
    <glyph glyph-name="l" unicode="l" horiz-adv-x="333" 
d="M48 0v706h237v-706h-237z" />
    <glyph glyph-name="m" unicode="m" horiz-adv-x="1146" 
d="M51 0v530h221v-88c36 72 132 94 204 94c92 0 139 -34 158 -54c12 -12 19 -23 26 -35c47 53 125 89 214 89c44 0 94 -10 137 -33c79 -42 83 -104 83 -150v-353h-228v287c0 17 0 34 -6 49c-12 31 -40 45 -77 45c-22 0 -59 -6 -80 -40c-16 -26 -16 -53 -16 -87v-254h-229
v258c0 27 0 64 -12 86c-14 26 -45 42 -76 42c-19 0 -44 -5 -62 -20c-22 -19 -29 -42 -29 -108v-258h-228z" />
    <glyph glyph-name="n" unicode="n" horiz-adv-x="812" 
d="M287 530v-67c58 42 121 77 230 77c71 0 119 -11 163 -37c82 -48 87 -119 87 -224v-279h-237v242c0 35 -2 54 -6 68c-17 61 -70 79 -114 79c-29 0 -57 -7 -79 -25c-43 -35 -44 -81 -44 -128v-236h-238v530h238z" />
    <glyph glyph-name="o" unicode="o" horiz-adv-x="833" 
d="M400 544c311 4 409 -144 409 -278c0 -187 -173 -280 -392 -280c-186 0 -392 70 -392 278c0 199 187 277 375 280zM407 405c-106 -3 -138 -78 -138 -137c0 -107 83 -139 153 -139c48 0 144 24 144 139c0 87 -60 140 -159 137z" />
    <glyph glyph-name="p" unicode="p" horiz-adv-x="792" 
d="M282 482l-1 -5c27 22 80 66 193 66c146 0 291 -87 291 -283c0 -162 -112 -279 -291 -279c-100 0 -154 36 -193 63v-230h-233v716h234v-48zM399 383c-97 -5 -117 -78 -117 -118c0 -63 45 -121 124 -121c80 0 121 56 121 121c0 56 -36 123 -128 118z" />
    <glyph glyph-name="q" unicode="q" horiz-adv-x="792" 
d="M507 -187v238c-29 -21 -83 -60 -190 -60c-142 0 -292 70 -292 280c0 212 171 275 296 275c110 0 161 -44 187 -67v51h234v-717h-235zM380 384c-83 -5 -109 -68 -109 -116c0 -70 52 -119 121 -119c49 0 115 31 115 118c0 55 -35 123 -127 117z" />
    <glyph glyph-name="r" unicode="r" horiz-adv-x="458" 
d="M284 530v-84c18 28 43 51 73 67c44 24 80 26 110 27v-209c-18 2 -36 4 -56 4c-63 0 -88 -14 -103 -28c-23 -21 -24 -46 -25 -70v-237h-235v530h236z" />
    <glyph glyph-name="s" unicode="s" horiz-adv-x="729" 
d="M14 162l238 10c2 -8 4 -18 15 -30c21 -22 67 -32 107 -32c47 0 93 13 93 46c0 9 -4 15 -7 18c-13 15 -50 20 -124 31c-42 6 -83 13 -124 22c-103 24 -173 50 -173 150c0 169 259 171 331 171c153 0 302 -37 336 -176l-234 -10c-10 53 -95 57 -117 57
c-45 0 -84 -13 -84 -42c0 -17 14 -26 45 -34c29 -8 178 -25 212 -30c80 -13 179 -30 179 -137c0 -52 -26 -85 -50 -109c-44 -41 -119 -84 -287 -84c-114 0 -217 20 -273 49c-61 32 -78 75 -83 130z" />
    <glyph glyph-name="t" unicode="t" horiz-adv-x="396" 
d="M295 687v-179h86v-137h-85v-174c2 -47 25 -47 86 -47v-150h-151c-77 2 -118 7 -149 37c-23 29 -22 56 -23 83l1 36l3 215h-74v137h76l2 179h228z" />
    <glyph glyph-name="u" unicode="u" horiz-adv-x="812" 
d="M50 208v321h237v-263c0 -30 0 -66 29 -94c24 -23 62 -30 88 -30c32 0 71 10 94 36c28 30 29 73 30 102v249h236v-529h-230v72c-28 -25 -93 -84 -234 -84c-34 0 -68 4 -100 13c-147 43 -149 167 -150 207z" />
    <glyph glyph-name="v" unicode="v" horiz-adv-x="729" 
d="M244 0l-247 530h256l69 -182c21 -53 26 -68 43 -126c15 54 19 69 39 119l72 189h255l-244 -530h-243z" />
    <glyph glyph-name="w" unicode="w" horiz-adv-x="1083" 
d="M176 0l-177 530h258l36 -228c8 -49 10 -61 15 -106c10 56 14 71 38 132l85 202h238l74 -203c20 -58 24 -73 31 -134c8 49 10 61 20 109l44 228h248l-191 -530h-233l-85 236c-17 47 -21 60 -32 104c-13 -48 -17 -59 -35 -105l-97 -235h-237z" />
    <glyph glyph-name="x" unicode="x" horiz-adv-x="833" 
d="M19 530h287l111 -140l112 140h287l-258 -254l278 -276h-286l-135 162l-132 -162h-286l279 278z" />
    <glyph glyph-name="y" unicode="y" horiz-adv-x="708" 
d="M222 30l-225 500h257l47 -141c31 -95 37 -119 52 -211c13 75 18 96 41 173l60 179h259l-251 -550c-26 -54 -51 -105 -109 -138c-42 -23 -73 -25 -154 -26h-124v150h109c24 0 48 6 48 31c0 11 -6 23 -10 33z" />
    <glyph glyph-name="z" unicode="z" horiz-adv-x="729" 
d="M49 382v148h646v-149l-349 -231h346v-150h-670v151l349 231h-322z" />
    <glyph glyph-name="braceleft" unicode="{" horiz-adv-x="354" 
d="M16 218v86c66 14 68 64 68 112v95c1 95 1 147 38 189c32 35 60 37 232 43v-85c-17 -4 -36 -9 -52 -35c-11 -17 -11 -60 -12 -94v-41c-1 -153 -1 -201 -93 -227c92 -26 92 -74 93 -227v-42c1 -34 1 -77 12 -94c16 -26 35 -31 52 -35v-85c-172 6 -200 8 -232 43
c-37 42 -37 94 -38 189v96c0 48 -2 98 -68 112z" />
    <glyph glyph-name="bar" unicode="|" horiz-adv-x="229" 
d="M145 958v-1216h-60v1216h60z" />
    <glyph glyph-name="braceright" unicode="}" horiz-adv-x="354" 
d="M338 304v-86c-66 -14 -68 -64 -68 -112v-96c-1 -95 -1 -147 -38 -189c-32 -35 -60 -37 -232 -43v85c17 4 36 9 52 35c11 17 11 60 12 94v42c1 153 1 201 93 227c-92 26 -92 74 -93 227v41c-1 34 -1 77 -12 94c-16 26 -35 31 -52 35v85c172 -6 200 -8 232 -43
c37 -42 37 -94 38 -189v-95c0 -48 2 -98 68 -112z" />
    <glyph glyph-name="asciitilde" unicode="~" horiz-adv-x="729" 
d="M574 387l52 -105c-33 -38 -93 -83 -156 -83c-39 0 -72 16 -104 31c-57 28 -77 37 -104 37c-42 0 -58 -17 -104 -70l-55 103c23 32 68 95 156 95c37 0 67 -14 103 -31c62 -28 84 -39 111 -39c26 0 58 12 101 62z" />
    <glyph glyph-name="exclamdown" unicode="&#xa1;" horiz-adv-x="333" 
d="M262 0h-230v137c2 68 3 84 11 181l10 127h188l9 -127c9 -97 10 -115 12 -181v-137zM241 706v-185h-188v185h188z" />
    <glyph glyph-name="cent" unicode="&#xa2;" horiz-adv-x="833" 
d="M387 551v119h89v-119c179 -8 289 -86 324 -197l-232 -19c-15 42 -52 62 -92 71v-279c67 8 91 57 101 77l235 -8c-12 -33 -33 -87 -85 -131c-81 -68 -190 -75 -251 -80v-137h-89v136c-68 2 -151 20 -203 44c-95 45 -149 130 -149 233c0 118 70 274 352 290zM387 131v273
c-100 -33 -100 -110 -100 -136c0 -28 4 -66 31 -98c24 -26 51 -34 69 -39z" />
    <glyph glyph-name="sterling" unicode="&#xa3;" horiz-adv-x="812" 
d="M74 364h116c-16 17 -67 75 -67 146c0 42 21 77 42 100c61 66 166 79 268 79c60 0 121 -2 179 -19c145 -42 152 -156 157 -225l-215 -12c-1 48 -2 72 -24 93c-16 14 -43 22 -71 22c-47 0 -90 -17 -90 -69c0 -30 11 -48 55 -117h152v-73h-110c7 -18 15 -35 15 -63
c0 -48 -18 -73 -31 -92c20 -7 45 -15 72 -15c69 0 72 56 74 81h199c-1 -40 -1 -94 -22 -135c-36 -69 -114 -86 -176 -86c-97 0 -177 36 -237 62c-79 -56 -159 -64 -198 -64c-71 0 -154 28 -154 121c0 59 38 125 139 125c49 0 70 -7 148 -33c-4 46 -16 64 -43 100h-178v74z
M247 95c-14 7 -56 28 -90 28c-7 0 -39 0 -39 -29c0 -27 34 -31 48 -31c37 0 62 18 81 32z" />
    <glyph glyph-name="fraction" unicode="&#x2044;" horiz-adv-x="125" 
d="M-173 17l375 709l67 -37l-374 -708z" />
    <glyph glyph-name="yen" unicode="&#xa5;" horiz-adv-x="875" 
d="M285 689l117 -208c9 -17 23 -45 37 -82c12 31 16 42 43 97l110 193h292l-186 -281h118v-114h-193l-48 -72h241v-114h-252v-108h-250v108h-255v114h244l-49 72h-195v114h119l-188 281h295z" />
    <glyph glyph-name="florin" unicode="&#x192;" horiz-adv-x="437" 
d="M301 689h149l-15 -128c-12 2 -30 4 -45 4c-56 0 -59 -32 -63 -78h100l-16 -135h-91l-40 -352c-9 -95 -14 -136 -47 -168c-41 -40 -103 -41 -150 -41h-157l14 128c13 -2 31 -4 46 -4c57 0 60 36 63 78l40 358h-80l15 136h80l9 71c5 30 11 63 38 90c41 40 103 41 150 41z
" />
    <glyph glyph-name="section" unicode="&#xa7;" horiz-adv-x="729" 
d="M24 29l229 15c4 -27 11 -79 108 -79c13 0 75 0 75 48c0 35 -35 44 -84 57c-107 28 -119 31 -169 47c-84 26 -162 53 -162 156c0 91 76 132 104 147c-20 16 -69 52 -69 125c0 31 11 63 31 90c53 70 150 95 279 95c73 0 188 -10 254 -55c58 -41 68 -95 74 -125l-226 -13
c-1 13 -2 23 -14 35c-19 19 -50 25 -73 25c-47 0 -80 -22 -80 -51c0 -24 18 -35 90 -55c52 -15 106 -28 158 -44c56 -17 158 -49 158 -151c0 -47 -28 -96 -71 -124c-17 -11 -32 -16 -47 -21c19 -9 86 -42 86 -128c0 -47 -31 -130 -138 -170c-59 -22 -132 -26 -176 -26
c-90 0 -174 15 -229 42c-97 48 -105 131 -108 160zM264 370c-12 -11 -32 -30 -32 -65c0 -39 34 -53 53 -60c43 -16 110 -31 179 -47c11 14 29 34 29 63c0 42 -43 59 -64 67c-32 12 -94 26 -165 42z" />
    <glyph glyph-name="currency" unicode="&#xa4;" horiz-adv-x="667" 
d="M661 570l-82 -80c16 -27 43 -72 43 -152s-27 -125 -43 -151l81 -82l-96 -95l-80 82c-25 -14 -74 -42 -151 -42c-78 0 -126 29 -151 43l-81 -81l-95 95l82 81c-16 25 -43 70 -43 151s27 126 42 151l-79 80l94 95l80 -80c27 16 73 43 152 43c81 0 125 -28 151 -43l80 80z
M333 503c-91 0 -164 -73 -164 -164s73 -164 164 -164s164 73 164 164s-73 164 -164 164z" />
    <glyph glyph-name="quotesingle" unicode="'" horiz-adv-x="208" 
d="M174 669l-53 -261h-31l-55 250c-1 9 -2 17 -2 24c0 45 39 67 75 67c35 0 67 -22 67 -62c0 -6 0 -12 -1 -18z" />
    <glyph glyph-name="quotedblleft" unicode="&#x201c;" horiz-adv-x="625" 
d="M271 532v-184h-228v179c2 50 4 105 55 145s136 43 172 43v-81c-51 -8 -87 -24 -92 -102h93zM583 348h-228v165c1 64 4 198 227 202v-81c-83 -13 -87 -62 -89 -102h90v-184z" />
    <glyph glyph-name="guillemotleft" unicode="&#xab;" horiz-adv-x="521" 
d="M281 423l206 133v-184l-93 -61l93 -64v-183l-206 133v226zM39 426l206 131v-182l-93 -64l93 -63v-183l-206 133v228z" />
    <glyph glyph-name="guilsinglleft" unicode="&#x2039;" horiz-adv-x="271" 
d="M35 423l206 133v-184l-92 -61l92 -64v-183l-206 133v226z" />
    <glyph glyph-name="guilsinglright" unicode="&#x203a;" horiz-adv-x="271" 
d="M31 373v183l206 -134v-227l-206 -132v182l91 65z" />
    <glyph glyph-name="fi" unicode="&#xfb01;" horiz-adv-x="729" 
d="M234 706h164v-129c-17 2 -24 3 -37 3c-64 0 -64 -22 -64 -72h100v-137h-90v-371h-235v371h-77v137h79v61c1 33 3 68 30 98c34 38 81 38 130 39zM444 582v124h235v-124h-235zM445 0v530h234v-530h-234z" />
    <glyph glyph-name="fl" unicode="&#xfb02;" horiz-adv-x="729" 
d="M235 706h164v-128c-17 1 -25 2 -38 2c-63 0 -63 -22 -63 -72h99v-137h-89v-371h-235v371h-77v137h79v61c1 34 3 69 30 98c34 38 81 38 130 39zM444 0v706h237v-706h-237z" />
    <glyph glyph-name="endash" unicode="&#x2013;" horiz-adv-x="854" 
d="M36 255v175h781v-175h-781z" />
    <glyph glyph-name="dagger" unicode="&#x2020;" horiz-adv-x="729" 
d="M244 537v169h240v-169h207v-184h-207v-478h-240v478h-206v184h206z" />
    <glyph glyph-name="daggerdbl" unicode="&#x2021;" horiz-adv-x="750" 
d="M256 574v133h237v-133h206v-181h-206v-184h206v-181h-205v-153h-237v152h-207v181h207v184h-207v182h206z" />
    <glyph glyph-name="periodcentered" unicode="&#xb7;" horiz-adv-x="313" 
d="M41 250v183h230v-183h-230z" />
    <glyph glyph-name="paragraph" unicode="&#xb6;" horiz-adv-x="667" 
d="M308 706h250v-78h-36v-795h-84v795h-118v-795h-84v459c-23 7 -52 14 -83 38c-48 38 -71 99 -71 161c0 35 5 106 66 161c56 52 119 53 160 54z" />
    <glyph glyph-name="bullet" unicode="&#x2022;" horiz-adv-x="333" 
d="M322 352c-1 -86 -61 -155 -152 -155c-99 0 -158 80 -158 155c0 83 67 156 157 156c79 0 153 -58 153 -156z" />
    <glyph glyph-name="quotesinglbase" unicode="&#x201a;" horiz-adv-x="313" 
d="M40 0v184h231v-169c-2 -40 -7 -121 -95 -170c-54 -30 -102 -30 -136 -30v82c59 7 82 28 91 103h-91z" />
    <glyph glyph-name="quotedblbase" unicode="&#x201e;" horiz-adv-x="625" 
d="M354 0v184h228v-179c-2 -49 -4 -104 -55 -144c-52 -41 -136 -43 -172 -44v82c50 8 86 24 91 101h-92zM42 184h228v-165c-2 -63 -5 -197 -228 -201v81c84 13 87 62 89 101h-89v184z" />
    <glyph glyph-name="quotedblright" unicode="&#x201d;" horiz-adv-x="625" 
d="M354 522v184h228v-179c-2 -49 -4 -104 -55 -144c-52 -41 -136 -43 -172 -44v82c51 8 86 24 91 101h-92zM42 706h228v-164c-2 -64 -5 -198 -228 -202v81c84 13 87 62 89 101h-89v184z" />
    <glyph glyph-name="guillemotright" unicode="&#xbb;" horiz-adv-x="521" 
d="M35 373v184l206 -133v-227l-206 -133v183l92 63zM276 373v183l206 -134v-227l-206 -132v182l92 65z" />
    <glyph glyph-name="ellipsis" unicode="&#x2026;" horiz-adv-x="1000" 
d="M51 0v184h230v-184h-230zM385 0v184h230v-184h-230zM719 0v184h230v-184h-230z" />
    <glyph glyph-name="perthousand" unicode="&#x2030;" horiz-adv-x="1813" 
d="M271 717c145 6 271 -62 271 -229c0 -52 -13 -140 -85 -189c-52 -36 -122 -46 -186 -46c-49 0 -128 6 -185 59c-59 55 -64 140 -64 170c0 53 12 118 60 166c49 49 119 66 189 69zM279 605c-24 0 -48 -6 -66 -31c-20 -27 -24 -60 -24 -93c0 -17 2 -44 11 -66
c13 -34 35 -55 78 -55c64 0 95 44 95 121c0 31 -5 62 -18 85c-10 18 -29 39 -76 39zM335 32l494 704l87 -60l-494 -706zM958 452c145 6 271 -62 271 -229c0 -9 0 -17 -1 -26c-14 -172 -146 -209 -270 -209c-51 0 -129 7 -185 59c-59 55 -64 140 -64 170c0 53 12 118 60 166
c49 49 119 66 189 69zM966 340c-24 0 -48 -6 -66 -31c-20 -27 -24 -60 -24 -93c0 -17 2 -44 11 -66c13 -34 35 -55 78 -55c64 0 95 44 95 121c0 31 -5 62 -18 85c-10 18 -29 39 -76 39zM1520 452c146 6 272 -62 272 -229c0 -9 0 -17 -1 -26c-14 -172 -146 -209 -270 -209
c-52 0 -130 7 -186 59c-59 55 -64 140 -64 170c0 53 12 118 60 166c49 49 119 66 189 69zM1529 340c-24 0 -48 -6 -67 -31c-20 -27 -24 -60 -24 -93c0 -17 2 -44 11 -66c13 -34 35 -55 79 -55c64 0 95 44 95 121c0 31 -5 62 -18 85c-11 18 -29 39 -76 39z" />
    <glyph glyph-name="questiondown" unicode="&#xbf;" horiz-adv-x="771" 
d="M505 255l202 -12c-3 -51 -7 -136 -86 -197c-76 -59 -195 -62 -271 -62c-69 0 -193 1 -268 65c-52 46 -62 105 -62 141c0 88 66 132 166 181c50 26 80 41 81 75h216c0 -75 -11 -107 -101 -148c-84 -38 -114 -52 -114 -97c0 -12 3 -78 107 -78c65 0 134 19 130 132z
M481 706v-184h-215v184h215z" />
    <glyph glyph-name="grave" unicode="`" 
d="M27 737h267l53 -138h-181z" />
    <glyph glyph-name="acute" unicode="&#xb4;" 
d="M31 599l50 138h263l-136 -138h-177z" />
    <glyph glyph-name="circumflex" unicode="&#x2c6;" 
d="M29 737h321l87 -123h-190l-60 82l-60 -82h-188z" />
    <glyph glyph-name="tilde" unicode="&#x2dc;" 
d="M51 590h-128c6 43 15 78 48 110c11 11 44 44 122 44c29 0 53 -6 82 -13c23 -5 99 -24 116 -24c29 0 33 19 35 28h127c-6 -106 -84 -152 -159 -152c-27 0 -53 4 -80 9c-110 26 -113 26 -124 26c-12 0 -34 -3 -39 -28z" />
    <glyph glyph-name="macron" unicode="&#xaf;" 
d="M464 614h-553v97h553v-97z" />
    <glyph glyph-name="breve" unicode="&#x2d8;" 
d="M237 737h175c-15 -29 -27 -51 -59 -75c-31 -23 -88 -49 -163 -49c-64 0 -127 20 -167 50c-33 24 -46 49 -60 75h173c4 -19 10 -53 52 -53c6 0 14 1 22 5c22 11 25 31 27 47z" />
    <glyph glyph-name="dotaccent" unicode="&#x2d9;" 
d="M84 614v124h207v-124h-207z" />
    <glyph glyph-name="dieresis" unicode="&#xa8;" 
d="M-89 738h207v-124h-207v124zM257 614v124h207v-124h-207z" />
    <glyph glyph-name="ring" unicode="&#x2da;" 
d="M181 789c99 3 148 -56 148 -108c0 -69 -67 -108 -146 -108c-84 0 -138 50 -138 109c0 65 61 105 136 107zM178 725c-38 -2 -59 -23 -59 -43c0 -26 27 -45 64 -45c35 0 68 13 68 45s-42 45 -73 43z" />
    <glyph glyph-name="cedilla" unicode="&#xb8;" 
d="M96 -104l113 135h72l-48 -78c23 -6 51 -13 74 -39c9 -11 21 -30 21 -57c0 -59 -58 -114 -163 -114c-55 0 -93 15 -119 25l22 55c22 -7 43 -14 74 -14c45 0 64 19 64 36c0 28 -33 28 -37 28c-18 0 -29 -6 -39 -12z" />
    <glyph glyph-name="hungarumlaut" unicode="&#x2dd;" 
d="M-116 599l49 138h264l-136 -138h-177zM178 599l49 138h264l-136 -138h-177z" />
    <glyph glyph-name="ogonek" unicode="&#x2db;" 
d="M141 2l87 18l7 -7c-16 -19 -32 -39 -46 -58c-7 -9 -17 -23 -17 -40c0 -27 27 -27 46 -27c51 0 81 6 103 9l1 -116c-25 -3 -84 -11 -122 -11s-147 0 -147 86c0 55 46 103 88 146z" />
    <glyph glyph-name="caron" unicode="&#x2c7;" 
d="M346 614h-320l-87 123h189l60 -82l61 82h188z" />
    <glyph glyph-name="emdash" unicode="&#x2014;" horiz-adv-x="1042" 
d="M44 432h954v-178h-954v178z" />
    <glyph glyph-name="AE" unicode="&#xc6;" horiz-adv-x="1125" 
d="M-7 0l393 706h710v-159h-320v-115h274v-160h-274v-112h328v-160h-574v113h-230l-58 -113h-249zM530 270v289l-150 -289h150z" />
    <glyph glyph-name="ordfeminine" unicode="&#xaa;" horiz-adv-x="500" 
d="M446 605v-157c2 -38 7 -46 20 -59h-148l-12 29c-39 -20 -76 -38 -140 -38c-79 0 -133 39 -133 103c0 73 74 89 98 94c19 4 39 7 59 8c16 1 98 1 117 2c-7 26 -11 44 -59 44c-51 0 -60 -10 -70 -33h-131c4 33 8 70 66 92c44 17 95 19 140 19c93 0 133 -13 156 -29
c32 -22 34 -47 37 -75zM308 526c-28 0 -57 0 -87 -3c-11 -1 -46 -4 -46 -30c0 -21 25 -31 46 -31c18 0 37 7 49 15c21 13 30 31 38 49z" />
    <glyph glyph-name="Lslash" unicode="&#x141;" horiz-adv-x="688" 
d="M314 706v-265l266 113v-125l-266 -114v-143h360v-172h-614v206l-60 -26v127l60 26v373h254z" />
    <glyph glyph-name="Oslash" unicode="&#xd8;" horiz-adv-x="1000" 
d="M806 656l121 99l41 -51l-106 -89c36 -38 106 -110 106 -257c0 -58 -12 -117 -38 -169c-19 -38 -46 -73 -77 -101c-88 -81 -202 -112 -348 -112c-52 0 -131 5 -202 26c-57 17 -84 36 -112 55l-125 -104l-41 48l116 98c-34 34 -112 114 -112 263c0 150 87 247 156 293
c93 63 218 78 314 78c46 0 122 -4 192 -24c52 -15 78 -31 115 -53zM309 239l339 284c-42 34 -95 51 -150 51c-192 0 -218 -147 -218 -214c0 -19 2 -76 29 -121zM689 471l-341 -284c41 -38 96 -54 151 -54c117 0 220 73 220 220c0 29 -4 75 -30 118z" />
    <glyph glyph-name="OE" unicode="&#x152;" horiz-adv-x="1125" 
d="M541 0v31c-84 -42 -160 -48 -193 -48c-180 0 -320 140 -320 364c0 239 160 378 343 378c88 0 146 -32 173 -47v28h554v-159h-325v-115h285v-160h-287v-112h333v-160h-563zM542 191v324c-33 34 -76 51 -124 51c-119 0 -182 -102 -182 -222c0 -156 99 -206 170 -206
c23 0 67 5 100 24c17 9 27 19 36 29z" />
    <glyph glyph-name="ordmasculine" unicode="&#xba;" horiz-adv-x="521" 
d="M250 710c167 3 236 -75 236 -162c0 -59 -31 -108 -86 -136c-48 -24 -109 -28 -140 -28c-77 0 -225 26 -225 162c0 118 106 162 215 164zM259 616c-63 -1 -72 -47 -72 -68c0 -43 28 -67 77 -67c39 0 72 23 72 67c0 27 -13 69 -77 68z" />
    <glyph glyph-name="ae" unicode="&#xe6;" horiz-adv-x="1125" 
d="M1102 228h-425c16 -63 53 -102 114 -102c55 0 88 32 100 57l215 -27c-8 -20 -25 -61 -70 -99c-59 -50 -148 -73 -239 -73c-171 0 -232 67 -265 104c-34 -33 -107 -104 -274 -104c-83 0 -169 17 -215 81c-37 63 -44 168 40 217c63 42 136 44 378 50c-3 39 -21 87 -108 90
c-71 0 -86 -40 -91 -55l-210 5c12 57 36 173 280 173c159 0 200 -37 247 -77c38 36 101 82 219 82c132 0 201 -50 236 -88c66 -73 67 -164 68 -234zM684 324h209c-5 20 -26 87 -96 87c-77 0 -102 -60 -113 -87zM467 233c-137 -4 -234 12 -234 -62c0 -54 65 -75 141 -35
c56 29 83 73 93 97z" />
    <glyph glyph-name="dotlessi" unicode="&#x131;" horiz-adv-x="333" 
d="M49 0v530h234v-530h-234z" />
    <glyph glyph-name="lslash" unicode="&#x142;" horiz-adv-x="333" 
d="M285 706v-219l48 25v-107l-48 -26v-379h-237v255l-48 -25v107l48 25v344h237z" />
    <glyph glyph-name="oslash" unicode="&#xf8;" horiz-adv-x="833" 
d="M36 40l63 44c-27 28 -74 77 -74 183c0 55 16 110 50 154c73 93 198 125 338 125c89 0 169 -16 216 -34c24 -9 41 -18 55 -26l79 54l31 -44l-64 -44c26 -28 77 -81 77 -183c0 -122 -68 -179 -98 -202c-52 -40 -136 -78 -289 -78c-25 0 -111 1 -179 19
c-43 11 -66 24 -96 41l-79 -54zM274 203l249 173c-14 10 -45 29 -107 29c-96 0 -159 -43 -159 -134c0 -29 7 -47 17 -68zM560 333l-252 -172c17 -12 45 -32 110 -32c64 0 158 29 158 137c0 34 -9 52 -16 67z" />
    <glyph glyph-name="oe" unicode="&#x153;" horiz-adv-x="1125" 
d="M1102 234h-428c17 -99 85 -110 111 -110c32 0 76 17 96 63l213 -27c-12 -33 -21 -57 -51 -89c-63 -65 -156 -89 -247 -89c-143 0 -201 54 -229 79c-22 -20 -38 -34 -76 -51c-47 -20 -100 -29 -151 -29c-152 0 -315 83 -315 277c0 171 120 286 316 286
c138 0 195 -49 229 -78c36 30 98 81 225 81c124 0 198 -50 236 -91c63 -70 67 -156 71 -222zM680 327h204c-9 47 -47 85 -98 85c-67 0 -95 -50 -106 -85zM346 405c-45 -1 -106 -29 -106 -138c0 -96 52 -138 110 -138c75 0 111 65 111 145c0 88 -50 132 -115 131z" />
    <glyph glyph-name="germandbls" unicode="&#xdf;" horiz-adv-x="771" 
d="M49 0v450c1 73 1 162 81 221c57 43 152 54 237 54c60 0 159 -6 214 -29c74 -30 99 -85 99 -152c0 -38 -11 -67 -25 -85c-16 -22 -44 -39 -69 -45c-8 -2 -15 -4 -23 -5c8 0 17 -1 25 -2c137 -17 165 -126 165 -194c0 -43 -10 -100 -48 -148c-15 -19 -62 -78 -192 -78
c-55 0 -108 10 -161 20v127c21 -5 41 -9 63 -9c10 0 31 1 50 12c33 18 42 58 42 94c0 58 -19 75 -27 83c-25 22 -52 22 -128 22v108c47 0 102 0 102 67c0 32 -12 74 -81 74c-84 0 -86 -67 -86 -122v-463h-238z" />
    <glyph glyph-name="brokenbar" unicode="&#xa6;" horiz-adv-x="229" 
d="M51 175h127v-350h-127v350zM51 675h127v-350h-127v350z" />
    <glyph glyph-name="Ograve" unicode="&#xd2;" horiz-adv-x="1000" 
d="M487 732c88 1 182 -8 263 -41c162 -66 219 -214 219 -335c0 -66 -16 -134 -51 -192c-22 -37 -50 -69 -84 -95c-96 -76 -210 -94 -338 -94c-246 0 -347 87 -399 158c-48 64 -67 132 -67 213c0 79 20 157 65 221c99 140 267 163 392 165zM502 575
c-159 2 -212 -124 -212 -221c0 -109 59 -222 212 -222c35 0 71 4 102 20c78 39 105 131 105 202c0 77 -34 219 -207 221zM301 896h267l53 -138h-181z" />
    <glyph glyph-name="Ccedilla" unicode="&#xc7;" horiz-adv-x="938" 
d="M695 253l242 -25c-15 -43 -48 -143 -174 -202c-86 -40 -179 -50 -275 -50l-14 -24c23 -6 51 -13 74 -39c11 -13 21 -32 21 -57c0 -59 -58 -114 -163 -114c-56 0 -94 15 -120 25l22 55c22 -7 44 -14 74 -14c45 0 65 19 65 36c0 28 -33 28 -38 28c-17 0 -28 -6 -39 -13
l-33 36l72 86c-41 5 -71 8 -115 21c-113 34 -265 131 -265 350c0 138 74 384 474 384c343 0 397 -156 421 -223l-235 -42c-10 21 -22 47 -59 71c-38 24 -85 32 -121 32c-113 0 -216 -71 -216 -221c0 -107 64 -218 208 -218c55 0 106 17 144 47c33 27 42 50 50 71z" />
    <glyph glyph-name="multiply" unicode="&#xd7;" horiz-adv-x="667" 
d="M605 110l-89 -91l-183 182l-182 -182l-90 91l182 181l-182 183l90 88l182 -180l183 180l89 -88l-181 -183z" />
    <glyph glyph-name="Ntilde" unicode="&#xd1;" horiz-adv-x="917" 
d="M62 0v706h209l217 -238c62 -67 75 -83 125 -148c-4 97 -5 131 -5 226v160h249v-706h-210l-259 292c-36 42 -48 57 -80 97c3 -122 3 -149 4 -239v-150h-250zM320 749h-128c6 43 15 78 48 110c11 11 44 44 122 44c29 0 53 -6 82 -13c23 -6 99 -25 116 -25c29 0 33 19 35 28
h127c-6 -106 -84 -152 -159 -152c-27 0 -53 5 -80 10c-110 26 -113 26 -124 26c-12 0 -34 -3 -39 -28z" />
    <glyph glyph-name="Otilde" unicode="&#xd5;" horiz-adv-x="1000" 
d="M487 732c88 1 182 -8 263 -41c162 -66 219 -214 219 -335c0 -66 -16 -134 -51 -192c-22 -37 -50 -69 -84 -95c-96 -76 -210 -94 -338 -94c-246 0 -347 87 -399 158c-48 64 -67 132 -67 213c0 79 20 157 65 221c99 140 267 163 392 165zM502 575
c-159 2 -212 -124 -212 -221c0 -109 59 -222 212 -222c35 0 71 4 102 20c78 39 105 131 105 202c0 77 -34 219 -207 221zM362 749h-128c6 43 15 78 48 110c11 11 44 44 122 44c29 0 53 -6 82 -13c23 -6 99 -25 116 -25c29 0 33 19 35 28h127c-6 -106 -84 -152 -159 -152
c-27 0 -53 5 -80 10c-110 26 -113 26 -124 26c-12 0 -34 -3 -39 -28z" />
    <glyph glyph-name="mu" unicode="&#xb5;" horiz-adv-x="812" 
d="M50 -204v734h237v-263c0 -31 0 -66 29 -94c22 -21 62 -31 90 -30c73 2 122 37 122 138v249h236v-530h-230v73c-55 -63 -91 -80 -144 -80c-56 0 -76 19 -103 37v-234h-237z" />
    <glyph glyph-name="Oacute" unicode="&#xd3;" horiz-adv-x="1000" 
d="M487 732c88 1 182 -8 263 -41c162 -66 219 -214 219 -335c0 -66 -16 -134 -51 -192c-22 -37 -50 -69 -84 -95c-96 -76 -210 -94 -338 -94c-246 0 -347 87 -399 158c-48 64 -67 132 -67 213c0 79 20 157 65 221c99 140 267 163 392 165zM502 575
c-159 2 -212 -124 -212 -221c0 -109 59 -222 212 -222c35 0 71 4 102 20c78 39 105 131 105 202c0 77 -34 219 -207 221zM384 758l50 138h263l-136 -138h-177z" />
    <glyph glyph-name="thorn" unicode="&#xfe;" horiz-adv-x="792" 
d="M282 482v-5c26 22 79 66 192 66c146 0 291 -87 291 -283c0 -163 -114 -279 -290 -279c-100 0 -153 35 -194 63v-230h-233v893h234v-225zM399 383c-97 -5 -117 -79 -117 -118c0 -63 45 -121 124 -121s121 56 121 121c0 56 -35 123 -128 118z" />
    <glyph glyph-name="eth" unicode="&#xf0;" horiz-adv-x="833" 
d="M751 636l-94 -11c29 -32 48 -52 74 -90c48 -72 79 -155 79 -241c0 -131 -67 -194 -98 -221c-30 -25 -102 -87 -293 -87c-26 0 -52 1 -78 4c-230 23 -316 145 -316 275c0 199 197 280 353 280c49 0 83 -6 113 -18c12 -4 23 -9 34 -14c0 3 -31 43 -36 48
c-12 14 -24 27 -37 39l-206 -25l-23 62l164 20c-15 13 -24 21 -60 48l215 25c22 -18 43 -35 55 -47l125 16zM407 405c-106 -3 -138 -78 -138 -136c0 -108 83 -140 153 -140s144 42 144 137c0 38 -12 76 -40 102c-32 29 -76 38 -119 37z" />
    <glyph glyph-name="Igrave" unicode="&#xcc;" 
d="M61 706h253v-706h-253v706zM-12 896h267l53 -138h-181z" />
    <glyph glyph-name="Ocircumflex" unicode="&#xd4;" horiz-adv-x="1000" 
d="M487 732c88 1 182 -8 263 -41c162 -66 219 -214 219 -335c0 -66 -16 -134 -51 -192c-22 -37 -50 -69 -84 -95c-96 -76 -210 -94 -338 -94c-246 0 -347 87 -399 158c-48 64 -67 132 -67 213c0 79 20 157 65 221c99 140 267 163 392 165zM502 575
c-159 2 -212 -124 -212 -221c0 -109 59 -222 212 -222c35 0 71 4 102 20c78 39 105 131 105 202c0 77 -34 219 -207 221zM342 896h321l87 -123h-190l-60 82l-60 -82h-188z" />
    <glyph glyph-name="Eacute" unicode="&#xc9;" horiz-adv-x="833" 
d="M60 706h744v-159h-491v-115h454v-160h-455v-112h502v-160h-754v706zM316 758l50 138h263l-136 -138h-177z" />
    <glyph glyph-name="Edieresis" unicode="&#xcb;" horiz-adv-x="833" 
d="M60 706h744v-159h-491v-115h454v-160h-455v-112h502v-160h-754v706zM141 896h207v-124h-207v124zM487 772v124h207v-124h-207z" />
    <glyph glyph-name="Aacute" unicode="&#xc1;" horiz-adv-x="896" 
d="M0 0l304 706h288l306 -706h-275l-38 115h-270l-38 -115h-277zM532 271l-83 239l-81 -239h164zM332 758l50 138h263l-136 -138h-177z" />
    <glyph glyph-name="Zcaron" unicode="&#x17d;" horiz-adv-x="833" 
d="M44 547v159h767v-151l-449 -388h448v-167h-804v149l468 398h-430zM587 773h-320l-87 123h189l60 -82l61 82h188z" />
    <glyph glyph-name="ccedilla" unicode="&#xe7;" horiz-adv-x="812" 
d="M570 206l234 -8c-9 -29 -27 -86 -89 -135c-91 -72 -217 -79 -285 -80l-18 -30c23 -6 51 -13 74 -40c11 -13 21 -31 21 -57c0 -58 -58 -113 -163 -113c-55 0 -93 15 -119 25l22 55c22 -7 43 -14 73 -14c45 0 65 19 65 35c0 29 -33 29 -38 29c-17 0 -28 -7 -38 -13l-34 36
l76 90c-254 20 -327 163 -327 278c0 107 64 178 108 211c80 61 193 79 299 79c132 0 240 -37 303 -102c38 -39 49 -71 57 -95l-233 -21c-15 47 -72 76 -131 76c-88 0 -151 -56 -151 -144c0 -85 58 -145 155 -145c27 0 64 5 94 25c29 19 37 39 45 58z" />
    <glyph glyph-name="logicalnot" unicode="&#xac;" horiz-adv-x="667" 
d="M539 0v227h-539v127h539h127v-354h-127z" />
    <glyph glyph-name="Atilde" unicode="&#xc3;" horiz-adv-x="896" 
d="M0 0l304 706h288l306 -706h-275l-38 115h-270l-38 -115h-277zM532 271l-83 239l-81 -239h164zM310 749h-128c6 43 15 78 48 110c11 11 44 44 122 44c29 0 53 -6 82 -13c23 -6 99 -25 116 -25c29 0 33 19 35 28h127c-6 -106 -84 -152 -159 -152c-27 0 -53 5 -80 10
c-110 26 -113 26 -124 26c-12 0 -34 -3 -39 -28z" />
    <glyph glyph-name="Thorn" unicode="&#xde;" horiz-adv-x="833" 
d="M61 0v707h252v-109h231c91 -2 172 -4 228 -54c36 -33 64 -91 64 -167c0 -63 -15 -146 -97 -195c-67 -40 -163 -41 -235 -42h-191v-140h-252zM313 438v-139h159c45 0 70 2 87 15s25 31 25 58c0 16 -9 43 -32 55c-16 8 -30 11 -59 11h-180z" />
    <glyph glyph-name="onequarter" unicode="&#xbc;" horiz-adv-x="1250" 
d="M262 706h123v-441h-162v298c-40 -12 -51 -14 -99 -17v104c33 3 80 9 138 56zM322 32l494 704l87 -60l-494 -705zM1216 189v-109h-68v-80h-154v80h-278v99l256 260h176v-250h68zM994 189v120l-117 -120h117z" />
    <glyph glyph-name="Acircumflex" unicode="&#xc2;" horiz-adv-x="896" 
d="M0 0l304 706h288l306 -706h-275l-38 115h-270l-38 -115h-277zM532 271l-83 239l-81 -239h164zM290 896h321l87 -123h-190l-60 82l-60 -82h-188z" />
    <glyph glyph-name="Odieresis" unicode="&#xd6;" horiz-adv-x="1000" 
d="M487 732c88 1 182 -8 263 -41c162 -66 219 -214 219 -335c0 -66 -16 -134 -51 -192c-22 -37 -50 -69 -84 -95c-96 -76 -210 -94 -338 -94c-246 0 -347 87 -399 158c-48 64 -67 132 -67 213c0 79 20 157 65 221c99 140 267 163 392 165zM502 575
c-159 2 -212 -124 -212 -221c0 -109 59 -222 212 -222c35 0 71 4 102 20c78 39 105 131 105 202c0 77 -34 219 -207 221zM223 894h207v-124h-207v124zM569 770v124h207v-124h-207z" />
    <glyph glyph-name="threequarters" unicode="&#xbe;" horiz-adv-x="1250" 
d="M452 502c49 -15 58 -27 66 -36c22 -29 22 -52 22 -60c0 -15 -4 -48 -22 -73c-11 -16 -28 -31 -51 -43c-37 -19 -100 -32 -185 -32c-90 0 -126 9 -144 15c-94 28 -108 85 -121 138l153 6c9 -18 25 -49 106 -49c10 0 43 1 65 10c8 3 24 11 24 31c0 29 -27 36 -55 37h-112
v95c30 0 105 0 123 4c8 1 35 6 35 32c0 29 -33 35 -60 35c-75 0 -90 -22 -101 -38l-152 6c4 29 11 73 67 104c59 33 152 34 193 34c60 0 133 -5 179 -37c29 -20 47 -55 47 -87c0 -60 -40 -77 -77 -92zM374 32l495 704l87 -60l-494 -705zM1216 187v-109h-68v-80h-154v80h-278
v99l256 262h176v-252h68zM994 191v121l-117 -121h117z" />
    <glyph glyph-name="Ucircumflex" unicode="&#xdb;" horiz-adv-x="958" 
d="M61 252v454h252v-401c0 -44 4 -76 20 -103c32 -55 96 -70 147 -70c66 0 104 23 121 39c43 40 44 104 44 138v397h252v-370c0 -83 -2 -170 -41 -230c-77 -120 -263 -131 -375 -131c-157 0 -246 22 -299 54c-110 54 -121 166 -121 223zM321 896h321l87 -123h-190l-60 82
l-60 -82h-188z" />
    <glyph glyph-name="Ugrave" unicode="&#xd9;" horiz-adv-x="958" 
d="M61 252v454h252v-401c0 -44 4 -76 20 -103c32 -55 96 -70 147 -70c66 0 104 23 121 39c43 40 44 104 44 138v397h252v-370c0 -83 -2 -170 -41 -230c-77 -120 -263 -131 -375 -131c-157 0 -246 22 -299 54c-110 54 -121 166 -121 223zM280 896h267l53 -138h-181z" />
    <glyph glyph-name="Udieresis" unicode="&#xdc;" horiz-adv-x="958" 
d="M61 252v454h252v-401c0 -44 4 -76 20 -103c32 -55 96 -70 147 -70c66 0 104 23 121 39c43 40 44 104 44 138v397h252v-370c0 -83 -2 -170 -41 -230c-77 -120 -263 -131 -375 -131c-157 0 -246 22 -299 54c-110 54 -121 166 -121 223zM203 896h207v-124h-207v124zM549 772
v124h207v-124h-207z" />
    <glyph glyph-name="Iacute" unicode="&#xcd;" 
d="M61 706h253v-706h-253v706zM71 758l50 138h263l-136 -138h-177z" />
    <glyph glyph-name="Agrave" unicode="&#xc0;" horiz-adv-x="896" 
d="M0 0l304 706h288l306 -706h-275l-38 115h-270l-38 -115h-277zM532 271l-83 239l-81 -239h164zM249 896h267l53 -138h-181z" />
    <glyph glyph-name="degree" unicode="&#xb0;" horiz-adv-x="354" 
d="M177 745c100 0 173 -80 173 -173c0 -94 -76 -172 -173 -172c-95 0 -172 77 -172 172c0 93 73 173 172 173zM178 630c-31 0 -56 -24 -56 -56c0 -30 25 -55 56 -55s56 25 56 55c0 32 -26 56 -56 56z" />
    <glyph glyph-name="onehalf" unicode="&#xbd;" horiz-adv-x="1250" 
d="M262 706h123v-441h-162v298c-40 -12 -51 -14 -99 -17v104c33 3 80 9 138 56zM304 31l495 705l86 -60l-494 -706zM891 282l-140 3c4 49 9 102 62 136c33 20 94 32 155 32c12 0 103 -1 151 -24c50 -24 69 -65 69 -104c0 -70 -54 -104 -105 -129c-18 -9 -105 -46 -124 -56
c-13 -7 -25 -15 -38 -22h274v-113h-455v102c59 84 91 99 241 167c11 5 44 20 44 42c0 28 -40 31 -67 31c-63 0 -65 -42 -67 -65z" />
    <glyph glyph-name="minus" unicode="&#x2212;" horiz-adv-x="667" 
d="M667 354v-127h-667v127h667z" />
    <glyph glyph-name="Yacute" unicode="&#xdd;" horiz-adv-x="875" 
d="M-10 706h295l117 -212c18 -37 21 -43 37 -81c17 39 21 50 43 95l110 198h292l-320 -496v-210h-250v210zM321 758l50 138h263l-136 -138h-177z" />
    <glyph glyph-name="twosuperior" unicode="&#xb2;" horiz-adv-x="562" 
d="M508 383v-113h-456v102c59 84 91 99 241 167c11 5 45 20 45 42c0 28 -40 31 -68 31c-63 0 -66 -42 -67 -65l-140 3c4 49 9 102 62 136c32 20 94 32 155 32c13 0 104 -1 152 -24c50 -24 69 -65 69 -104c0 -70 -54 -104 -105 -129c-18 -9 -106 -46 -125 -56
c-13 -7 -25 -15 -37 -22h274z" />
    <glyph glyph-name="Uacute" unicode="&#xda;" horiz-adv-x="958" 
d="M61 252v454h252v-401c0 -44 4 -76 20 -103c32 -55 96 -70 147 -70c66 0 104 23 121 39c43 40 44 104 44 138v397h252v-370c0 -83 -2 -170 -41 -230c-77 -120 -263 -131 -375 -131c-157 0 -246 22 -299 54c-110 54 -121 166 -121 223zM363 758l50 138h263l-136 -138h-177z
" />
    <glyph glyph-name="registered" unicode="&#xae;" horiz-adv-x="833" 
d="M250 586h163c39 0 77 -1 108 -11c58 -18 81 -71 81 -113c0 -68 -51 -92 -80 -105c28 -18 41 -29 51 -86c10 -62 16 -101 39 -143h-126c-14 28 -19 59 -25 99c-13 90 -15 93 -101 93v-192h-110v458zM360 502v-95h48c33 0 51 1 64 9c14 8 20 26 20 40c0 29 -18 43 -45 45
c-9 1 -16 1 -87 1zM773 352c-1 -198 -156 -355 -358 -355c-185 0 -355 145 -355 356c0 205 164 356 356 356c206 0 358 -163 357 -357zM741 352c1 177 -138 325 -323 325c-183 0 -326 -146 -326 -324c0 -182 146 -324 324 -324c183 0 324 144 325 323z" />
    <glyph glyph-name="copyright" unicode="&#xa9;" horiz-adv-x="833" 
d="M773 351c-1 -197 -156 -354 -357 -354c-186 0 -356 145 -356 356c0 204 164 356 356 356c207 0 358 -163 357 -358zM741 351c1 178 -138 326 -323 326c-184 0 -326 -146 -326 -324c0 -182 146 -324 324 -324c184 0 324 144 325 322zM533 270l88 -80
c-64 -67 -129 -84 -196 -84c-165 0 -251 115 -251 247c0 136 92 251 251 251c109 0 166 -54 196 -85l-88 -84c-31 30 -63 49 -109 49c-90 0 -126 -66 -126 -130c0 -77 49 -129 128 -129c59 0 91 30 107 45z" />
    <glyph glyph-name="Ecircumflex" unicode="&#xca;" horiz-adv-x="833" 
d="M60 706h744v-159h-491v-115h454v-160h-455v-112h502v-160h-754v706zM269 896h321l87 -123h-190l-60 82l-60 -82h-188z" />
    <glyph glyph-name="trademark" unicode="&#x2122;" horiz-adv-x="688" 
d="M675 706v-332h-83c1 153 5 212 10 245c-7 -28 -8 -33 -14 -54l-56 -191h-75l-59 192c-2 7 -12 43 -14 51c2 -16 11 -90 11 -243h-81v332h106l76 -240l71 240h108zM186 639v-265h-84v265h-102v67h287v-67h-101z" />
    <glyph glyph-name="plusminus" unicode="&#xb1;" horiz-adv-x="667" 
d="M398 371v-209h-127v209h-229v127h229v208h127v-208h227v-127h-227zM625 127v-127h-583v127h583z" />
    <glyph glyph-name="Eth" unicode="&#xd0;" horiz-adv-x="917" 
d="M61 0v309h-61v97h61v300h401c110 -2 279 -6 375 -165c16 -27 50 -89 50 -195c0 -55 -10 -110 -32 -161c-18 -40 -51 -98 -132 -140c-76 -40 -146 -43 -214 -45h-448zM308 538v-132h212v-97h-212v-149h129c34 1 101 3 146 42c34 30 57 90 57 150c0 67 -28 118 -63 146
c-49 39 -114 40 -148 40h-121z" />
    <glyph glyph-name="Adieresis" unicode="&#xc4;" horiz-adv-x="896" 
d="M0 0l304 706h288l306 -706h-275l-38 115h-270l-38 -115h-277zM532 271l-83 239l-81 -239h164zM172 896h207v-124h-207v124zM518 772v124h207v-124h-207z" />
    <glyph glyph-name="Aring" unicode="&#xc5;" horiz-adv-x="896" 
d="M0 0l304 706h288l306 -706h-275l-38 115h-270l-38 -115h-277zM532 271l-83 239l-81 -239h164zM442 925c69 3 145 -29 145 -102c0 -57 -51 -101 -140 -101c-75 0 -134 39 -134 101c0 66 66 99 129 102zM438 861c-17 -1 -50 -8 -50 -38c0 -36 49 -38 59 -38
c18 0 65 6 65 39c0 31 -49 39 -74 37z" />
    <glyph glyph-name="Ydieresis" unicode="&#x178;" horiz-adv-x="875" 
d="M-10 706h295l117 -212c18 -37 21 -43 37 -81c17 39 21 50 43 95l110 198h292l-320 -496v-210h-250v210zM161 896h207v-124h-207v124zM507 772v124h207v-124h-207z" />
    <glyph glyph-name="divide" unicode="&#xf7;" horiz-adv-x="667" 
d="M414 111c0 -41 -31 -80 -80 -80c-45 0 -81 33 -81 80c0 42 32 81 81 81c46 0 80 -38 80 -81zM414 469c0 -41 -31 -80 -81 -80c-43 0 -80 32 -80 80c0 42 32 81 81 81c46 0 80 -38 80 -81zM667 354v-127h-666v127h666z" />
    <glyph glyph-name="onesuperior" unicode="&#xb9;" horiz-adv-x="562" 
d="M262 706h123v-441h-162v298c-40 -12 -51 -14 -99 -17v104c33 3 80 9 138 56z" />
    <glyph glyph-name="threesuperior" unicode="&#xb3;" horiz-adv-x="562" 
d="M452 502c49 -15 58 -27 65 -36c22 -29 22 -52 22 -60c0 -15 -4 -48 -22 -73c-11 -16 -28 -31 -51 -43c-37 -19 -100 -32 -185 -32c-90 0 -126 9 -144 15c-94 28 -108 85 -121 138l153 6c9 -18 25 -49 106 -49c10 0 43 1 65 10c8 3 24 11 24 31c0 29 -27 36 -55 37h-111
v95c30 0 105 0 123 4c8 1 35 6 35 32c0 29 -33 35 -60 35c-75 0 -90 -22 -101 -38l-152 6c4 29 11 73 67 104c59 33 152 34 193 34c60 0 133 -5 179 -37c29 -20 47 -55 47 -87c0 -60 -40 -77 -77 -92z" />
    <glyph glyph-name="Egrave" unicode="&#xc8;" horiz-adv-x="833" 
d="M60 706h744v-159h-491v-115h454v-160h-455v-112h502v-160h-754v706zM233 896h267l53 -138h-181z" />
    <glyph glyph-name="Idieresis" unicode="&#xcf;" 
d="M61 706h253v-706h-253v706zM-89 896h207v-124h-207v124zM257 772v124h207v-124h-207z" />
    <glyph glyph-name="Scaron" unicode="&#x160;" horiz-adv-x="812" 
d="M400 581c-33 0 -111 -5 -111 -57c0 -10 3 -19 8 -25c17 -22 88 -38 127 -46c48 -11 97 -20 145 -31c31 -6 61 -13 91 -25c94 -35 124 -105 124 -169c0 -47 -16 -90 -37 -121c-59 -89 -178 -128 -368 -128c-71 0 -212 6 -295 80c-61 54 -70 119 -74 151l249 7
c9 -46 56 -81 156 -81c26 0 63 3 88 17c17 10 35 30 35 54c0 33 -27 47 -47 54c-31 10 -190 38 -225 46c-28 6 -54 13 -81 22c-27 10 -140 50 -140 179c0 53 22 102 57 138c79 82 221 90 299 90c86 0 171 -12 215 -27c132 -42 149 -141 156 -179l-248 -14
c-6 23 -18 65 -124 65zM566 773h-320l-87 123h189l60 -82l61 82h188z" />
    <glyph glyph-name="Icircumflex" unicode="&#xce;" 
d="M61 706h253v-706h-253v706zM29 896h321l87 -123h-190l-60 82l-60 -82h-188z" />
    <glyph glyph-name="aacute" unicode="&#xe1;" horiz-adv-x="792" 
d="M268 364h-227c6 34 17 96 81 135c50 30 142 49 267 49c106 0 207 -9 265 -38c86 -41 86 -120 86 -156v-277c1 -41 6 -56 29 -78h-245c-6 21 -7 27 -9 51c-61 -26 -152 -66 -263 -66c-60 0 -123 10 -171 47c-41 30 -62 73 -62 123c0 31 9 66 28 92c17 23 48 46 94 60
c88 27 255 30 370 32c0 14 0 28 -12 43c-9 11 -29 31 -102 31c-12 0 -49 -2 -75 -8c-42 -10 -48 -26 -54 -40zM515 243c-39 -2 -122 -5 -162 -9c-34 -3 -96 -9 -96 -56c0 -16 12 -53 83 -53c39 0 78 10 112 30c48 27 56 59 63 88zM281 599l50 138h263l-136 -138h-177z" />
    <glyph glyph-name="acircumflex" unicode="&#xe2;" horiz-adv-x="792" 
d="M268 364h-227c6 34 17 96 81 135c50 30 142 49 267 49c106 0 207 -9 265 -38c86 -41 86 -120 86 -156v-277c1 -41 6 -56 29 -78h-245c-6 21 -7 27 -9 51c-61 -26 -152 -66 -263 -66c-60 0 -123 10 -171 47c-41 30 -62 73 -62 123c0 31 9 66 28 92c17 23 48 46 94 60
c88 27 255 30 370 32c0 14 0 28 -12 43c-9 11 -29 31 -102 31c-12 0 -49 -2 -75 -8c-42 -10 -48 -26 -54 -40zM515 243c-39 -2 -122 -5 -162 -9c-34 -3 -96 -9 -96 -56c0 -16 12 -53 83 -53c39 0 78 10 112 30c48 27 56 59 63 88zM239 737h321l87 -123h-190l-60 82l-60 -82
h-188z" />
    <glyph glyph-name="adieresis" unicode="&#xe4;" horiz-adv-x="792" 
d="M268 364h-227c6 34 17 96 81 135c50 30 142 49 267 49c106 0 207 -9 265 -38c86 -41 86 -120 86 -156v-277c1 -41 6 -56 29 -78h-245c-6 21 -7 27 -9 51c-61 -26 -152 -66 -263 -66c-60 0 -123 10 -171 47c-41 30 -62 73 -62 123c0 31 9 66 28 92c17 23 48 46 94 60
c88 27 255 30 370 32c0 14 0 28 -12 43c-9 11 -29 31 -102 31c-12 0 -49 -2 -75 -8c-42 -10 -48 -26 -54 -40zM515 243c-39 -2 -122 -5 -162 -9c-34 -3 -96 -9 -96 -56c0 -16 12 -53 83 -53c39 0 78 10 112 30c48 27 56 59 63 88zM118 741h207v-124h-207v124zM464 617v124
h207v-124h-207z" />
    <glyph glyph-name="agrave" unicode="&#xe0;" horiz-adv-x="792" 
d="M268 364h-227c6 34 17 96 81 135c50 30 142 49 267 49c106 0 207 -9 265 -38c86 -41 86 -120 86 -156v-277c1 -41 6 -56 29 -78h-245c-6 21 -7 27 -9 51c-61 -26 -152 -66 -263 -66c-60 0 -123 10 -171 47c-41 30 -62 73 -62 123c0 31 9 66 28 92c17 23 48 46 94 60
c88 27 255 30 370 32c0 14 0 28 -12 43c-9 11 -29 31 -102 31c-12 0 -49 -2 -75 -8c-42 -10 -48 -26 -54 -40zM515 243c-39 -2 -122 -5 -162 -9c-34 -3 -96 -9 -96 -56c0 -16 12 -53 83 -53c39 0 78 10 112 30c48 27 56 59 63 88zM198 737h267l53 -138h-181z" />
    <glyph glyph-name="aring" unicode="&#xe5;" horiz-adv-x="792" 
d="M268 364h-227c6 34 17 96 81 135c50 30 142 49 267 49c106 0 207 -9 265 -38c86 -41 86 -120 86 -156v-277c1 -41 6 -56 29 -78h-245c-6 21 -7 27 -9 51c-61 -26 -152 -66 -263 -66c-60 0 -123 10 -171 47c-41 30 -62 73 -62 123c0 31 9 66 28 92c17 23 48 46 94 60
c88 27 255 30 370 32c0 14 0 28 -12 43c-9 11 -29 31 -102 31c-12 0 -49 -2 -75 -8c-42 -10 -48 -26 -54 -40zM515 243c-39 -2 -122 -5 -162 -9c-34 -3 -96 -9 -96 -56c0 -16 12 -53 83 -53c39 0 78 10 112 30c48 27 56 59 63 88zM385 789c99 3 148 -56 148 -108
c0 -69 -67 -108 -146 -108c-84 0 -138 50 -138 109c0 65 61 105 136 107zM382 725c-38 -2 -59 -23 -59 -43c0 -26 27 -45 64 -45c35 0 68 13 68 45s-42 45 -73 43z" />
    <glyph glyph-name="atilde" unicode="&#xe3;" horiz-adv-x="792" 
d="M268 364h-227c6 34 17 96 81 135c50 30 142 49 267 49c106 0 207 -9 265 -38c86 -41 86 -120 86 -156v-277c1 -41 6 -56 29 -78h-245c-6 21 -7 27 -9 51c-61 -26 -152 -66 -263 -66c-60 0 -123 10 -171 47c-41 30 -62 73 -62 123c0 31 9 66 28 92c17 23 48 46 94 60
c88 27 255 30 370 32c0 14 0 28 -12 43c-9 11 -29 31 -102 31c-12 0 -49 -2 -75 -8c-42 -10 -48 -26 -54 -40zM515 243c-39 -2 -122 -5 -162 -9c-34 -3 -96 -9 -96 -56c0 -16 12 -53 83 -53c39 0 78 10 112 30c48 27 56 59 63 88zM259 590h-128c6 43 15 78 48 110
c11 11 44 44 122 44c29 0 53 -6 82 -13c23 -5 99 -24 116 -24c29 0 33 19 35 28h127c-6 -106 -84 -152 -159 -152c-27 0 -53 4 -80 9c-110 26 -113 26 -124 26c-12 0 -34 -3 -39 -28z" />
    <glyph glyph-name="eacute" unicode="&#xe9;" horiz-adv-x="812" 
d="M796 232h-526c19 -93 102 -113 147 -113c28 0 53 7 70 14c25 10 35 20 49 34l246 -12c-13 -24 -39 -74 -112 -114c-92 -50 -218 -56 -264 -56c-70 0 -140 9 -205 35c-102 41 -175 123 -175 247c0 70 25 125 53 160c90 115 249 118 328 118c107 0 228 -15 310 -99
c74 -75 77 -155 79 -214zM278 324h270c-8 20 -13 35 -38 56c-32 26 -72 30 -97 30c-100 0 -125 -62 -135 -86zM291 599l50 138h263l-136 -138h-177z" />
    <glyph glyph-name="ecircumflex" unicode="&#xea;" horiz-adv-x="812" 
d="M796 232h-526c19 -93 102 -113 147 -113c28 0 53 7 70 14c25 10 35 20 49 34l246 -12c-13 -24 -39 -74 -112 -114c-92 -50 -218 -56 -264 -56c-70 0 -140 9 -205 35c-102 41 -175 123 -175 247c0 70 25 125 53 160c90 115 249 118 328 118c107 0 228 -15 310 -99
c74 -75 77 -155 79 -214zM278 324h270c-8 20 -13 35 -38 56c-32 26 -72 30 -97 30c-100 0 -125 -62 -135 -86zM249 737h321l87 -123h-190l-60 82l-60 -82h-188z" />
    <glyph glyph-name="edieresis" unicode="&#xeb;" horiz-adv-x="812" 
d="M796 232h-526c19 -93 102 -113 147 -113c28 0 53 7 70 14c25 10 35 20 49 34l246 -12c-13 -24 -39 -74 -112 -114c-92 -50 -218 -56 -264 -56c-70 0 -140 9 -205 35c-102 41 -175 123 -175 247c0 70 25 125 53 160c90 115 249 118 328 118c107 0 228 -15 310 -99
c74 -75 77 -155 79 -214zM278 324h270c-8 20 -13 35 -38 56c-32 26 -72 30 -97 30c-100 0 -125 -62 -135 -86zM131 738h207v-124h-207v124zM477 614v124h207v-124h-207z" />
    <glyph glyph-name="egrave" unicode="&#xe8;" horiz-adv-x="812" 
d="M796 232h-526c19 -93 102 -113 147 -113c28 0 53 7 70 14c25 10 35 20 49 34l246 -12c-13 -24 -39 -74 -112 -114c-92 -50 -218 -56 -264 -56c-70 0 -140 9 -205 35c-102 41 -175 123 -175 247c0 70 25 125 53 160c90 115 249 118 328 118c107 0 228 -15 310 -99
c74 -75 77 -155 79 -214zM278 324h270c-8 20 -13 35 -38 56c-32 26 -72 30 -97 30c-100 0 -125 -62 -135 -86zM208 737h267l53 -138h-181z" />
    <glyph glyph-name="iacute" unicode="&#xed;" horiz-adv-x="333" 
d="M49 0v530h234v-530h-234zM51 599l50 138h263l-136 -138h-177z" />
    <glyph glyph-name="icircumflex" unicode="&#xee;" horiz-adv-x="333" 
d="M49 0v530h234v-530h-234zM9 737h321l87 -123h-190l-60 82l-60 -82h-188z" />
    <glyph glyph-name="idieresis" unicode="&#xef;" horiz-adv-x="333" 
d="M49 0v530h234v-530h-234zM-109 738h207v-124h-207v124zM237 614v124h207v-124h-207z" />
    <glyph glyph-name="igrave" unicode="&#xec;" horiz-adv-x="333" 
d="M49 0v530h234v-530h-234zM-32 737h267l53 -138h-181z" />
    <glyph glyph-name="ntilde" unicode="&#xf1;" horiz-adv-x="812" 
d="M287 530v-67c58 42 121 77 230 77c71 0 119 -11 163 -37c82 -48 87 -119 87 -224v-279h-237v242c0 35 -2 54 -6 68c-17 61 -70 79 -114 79c-29 0 -57 -7 -79 -25c-43 -35 -44 -81 -44 -128v-236h-238v530h238zM269 590h-128c6 43 15 78 48 110c11 11 44 44 122 44
c29 0 53 -6 82 -13c23 -5 99 -24 116 -24c29 0 33 19 35 28h127c-6 -106 -84 -152 -159 -152c-27 0 -53 4 -80 9c-110 26 -113 26 -124 26c-12 0 -34 -3 -39 -28z" />
    <glyph glyph-name="oacute" unicode="&#xf3;" horiz-adv-x="833" 
d="M400 544c311 4 409 -144 409 -278c0 -187 -173 -280 -392 -280c-186 0 -392 70 -392 278c0 199 187 277 375 280zM407 405c-106 -3 -138 -78 -138 -137c0 -107 83 -139 153 -139c48 0 144 24 144 139c0 87 -60 140 -159 137zM301 599l50 138h263l-136 -138h-177z" />
    <glyph glyph-name="ocircumflex" unicode="&#xf4;" horiz-adv-x="833" 
d="M400 544c311 4 409 -144 409 -278c0 -187 -173 -280 -392 -280c-186 0 -392 70 -392 278c0 199 187 277 375 280zM407 405c-106 -3 -138 -78 -138 -137c0 -107 83 -139 153 -139c48 0 144 24 144 139c0 87 -60 140 -159 137zM259 737h321l87 -123h-190l-60 82l-60 -82
h-188z" />
    <glyph glyph-name="odieresis" unicode="&#xf6;" horiz-adv-x="833" 
d="M400 544c311 4 409 -144 409 -278c0 -187 -173 -280 -392 -280c-186 0 -392 70 -392 278c0 199 187 277 375 280zM407 405c-106 -3 -138 -78 -138 -137c0 -107 83 -139 153 -139c48 0 144 24 144 139c0 87 -60 140 -159 137zM139 738h207v-124h-207v124zM485 614v124h207
v-124h-207z" />
    <glyph glyph-name="ograve" unicode="&#xf2;" horiz-adv-x="833" 
d="M400 544c311 4 409 -144 409 -278c0 -187 -173 -280 -392 -280c-186 0 -392 70 -392 278c0 199 187 277 375 280zM407 405c-106 -3 -138 -78 -138 -137c0 -107 83 -139 153 -139c48 0 144 24 144 139c0 87 -60 140 -159 137zM218 737h267l53 -138h-181z" />
    <glyph glyph-name="otilde" unicode="&#xf5;" horiz-adv-x="833" 
d="M400 544c311 4 409 -144 409 -278c0 -187 -173 -280 -392 -280c-186 0 -392 70 -392 278c0 199 187 277 375 280zM407 405c-106 -3 -138 -78 -138 -137c0 -107 83 -139 153 -139c48 0 144 24 144 139c0 87 -60 140 -159 137zM279 590h-128c6 43 15 78 48 110
c11 11 44 44 122 44c29 0 53 -6 82 -13c23 -5 99 -24 116 -24c29 0 33 19 35 28h127c-6 -106 -84 -152 -159 -152c-27 0 -53 4 -80 9c-110 26 -113 26 -124 26c-12 0 -34 -3 -39 -28z" />
    <glyph glyph-name="scaron" unicode="&#x161;" horiz-adv-x="729" 
d="M14 162l238 10c2 -8 4 -18 15 -30c21 -22 67 -32 107 -32c47 0 93 13 93 46c0 9 -4 15 -7 18c-13 15 -50 20 -124 31c-42 6 -83 13 -124 22c-103 24 -173 50 -173 150c0 169 259 171 331 171c153 0 302 -37 336 -176l-234 -10c-10 53 -95 57 -117 57
c-45 0 -84 -13 -84 -42c0 -17 14 -26 45 -34c29 -8 178 -25 212 -30c80 -13 179 -30 179 -137c0 -52 -26 -85 -50 -109c-44 -41 -119 -84 -287 -84c-114 0 -217 20 -273 49c-61 32 -78 75 -83 130zM525 614h-320l-87 123h189l60 -82l61 82h188z" />
    <glyph glyph-name="uacute" unicode="&#xfa;" horiz-adv-x="812" 
d="M50 208v321h237v-263c0 -30 0 -66 29 -94c24 -23 62 -30 88 -30c32 0 71 10 94 36c28 30 29 73 30 102v249h236v-529h-230v72c-28 -25 -93 -84 -234 -84c-34 0 -68 4 -100 13c-147 43 -149 167 -150 207zM307 599l50 138h263l-136 -138h-177z" />
    <glyph glyph-name="ucircumflex" unicode="&#xfb;" horiz-adv-x="812" 
d="M50 208v321h237v-263c0 -30 0 -66 29 -94c24 -23 62 -30 88 -30c32 0 71 10 94 36c28 30 29 73 30 102v249h236v-529h-230v72c-28 -25 -93 -84 -234 -84c-34 0 -68 4 -100 13c-147 43 -149 167 -150 207zM249 737h321l87 -123h-190l-60 82l-60 -82h-188z" />
    <glyph glyph-name="udieresis" unicode="&#xfc;" horiz-adv-x="812" 
d="M50 208v321h237v-263c0 -30 0 -66 29 -94c24 -23 62 -30 88 -30c32 0 71 10 94 36c28 30 29 73 30 102v249h236v-529h-230v72c-28 -25 -93 -84 -234 -84c-34 0 -68 4 -100 13c-147 43 -149 167 -150 207zM130 737h207v-124h-207v124zM476 613v124h207v-124h-207z" />
    <glyph glyph-name="ugrave" unicode="&#xf9;" horiz-adv-x="812" 
d="M50 208v321h237v-263c0 -30 0 -66 29 -94c24 -23 62 -30 88 -30c32 0 71 10 94 36c28 30 29 73 30 102v249h236v-529h-230v72c-28 -25 -93 -84 -234 -84c-34 0 -68 4 -100 13c-147 43 -149 167 -150 207zM198 737h267l53 -138h-181z" />
    <glyph glyph-name="yacute" unicode="&#xfd;" horiz-adv-x="708" 
d="M222 30l-225 500h257l47 -141c31 -95 37 -119 52 -211c13 75 18 96 41 173l60 179h259l-251 -550c-26 -54 -51 -105 -109 -138c-42 -23 -73 -25 -154 -26h-124v150h109c24 0 48 6 48 31c0 11 -6 23 -10 33zM255 599l50 138h263l-136 -138h-177z" />
    <glyph glyph-name="ydieresis" unicode="&#xff;" horiz-adv-x="708" 
d="M222 30l-225 500h257l47 -141c31 -95 37 -119 52 -211c13 75 18 96 41 173l60 179h259l-251 -550c-26 -54 -51 -105 -109 -138c-42 -23 -73 -25 -154 -26h-124v150h109c24 0 48 6 48 31c0 11 -6 23 -10 33zM79 738h207v-124h-207v124zM425 614v124h207v-124h-207z" />
    <glyph glyph-name="zcaron" unicode="&#x17e;" horiz-adv-x="729" 
d="M49 382v148h646v-149l-349 -231h346v-150h-670v151l349 231h-322zM525 614h-320l-87 123h189l60 -82l61 82h188z" />
    </font>
</defs>
</svg>
